<svg width="678" height="678" viewBox="0 0 678 678" fill="none" xmlns="http://www.w3.org/2000/svg">
<path d="M532.705 210.519C532.705 210.519 476.363 133.335 402.854 101.496C329.345 69.6574 243.605 85.5633 187.25 145.593C130.895 205.624 154.191 301.167 126.013 388.141C97.8353 475.115 119.884 563.309 211.766 589.033C303.649 614.756 326.904 552.285 424.903 527.782C522.901 503.279 655.206 394.27 532.705 210.519Z" fill="#C53F3F"/>
<path opacity="0.7" d="M532.705 210.519C532.705 210.519 476.363 133.335 402.854 101.496C329.345 69.6574 243.605 85.5633 187.25 145.593C130.895 205.624 154.191 301.167 126.013 388.141C97.8353 475.115 119.884 563.309 211.766 589.033C303.649 614.756 326.904 552.285 424.903 527.782C522.901 503.279 655.206 394.27 532.705 210.519Z" fill="white"/>
<path d="M364.33 568.802V556.476H327.989V568.802C327.992 572.827 326.635 576.736 324.138 579.894L322.538 581.914H369.781L368.195 579.894C365.688 576.74 364.325 572.83 364.33 568.802Z" fill="white" stroke="#263238" stroke-linecap="round" stroke-linejoin="round"/>
<g style="mix-blend-mode:multiply">
<path d="M325.765 577.453H366.567C365.096 574.807 364.326 571.829 364.329 568.802V556.476H327.988V568.802C327.99 571.827 327.225 574.803 325.765 577.453Z" fill="#C53F3F"/>
</g>
<path d="M364.33 558.333H327.989V563.54H364.33V558.333Z" fill="#263238" stroke="#263238" stroke-width="1.09543" stroke-linecap="round" stroke-linejoin="round"/>
<path d="M406.583 450.83H285.736C278.779 450.83 273.139 456.47 273.139 463.427V547.771C273.139 554.728 278.779 560.368 285.736 560.368H406.583C413.54 560.368 419.18 554.728 419.18 547.771V463.427C419.18 456.47 413.54 450.83 406.583 450.83Z" fill="#263238" stroke="#263238" stroke-width="1.09543" stroke-linecap="round" stroke-linejoin="round"/>
<path d="M273.139 543.336H419.18V547.824C419.18 549.479 418.854 551.117 418.221 552.645C417.588 554.173 416.66 555.562 415.49 556.732C414.32 557.902 412.932 558.83 411.403 559.463C409.875 560.096 408.237 560.422 406.583 560.422H285.736C284.082 560.422 282.444 560.096 280.915 559.463C279.387 558.83 277.998 557.902 276.828 556.732C275.659 555.562 274.731 554.173 274.098 552.645C273.465 551.117 273.139 549.479 273.139 547.824V543.404V543.336Z" fill="white" stroke="#263238" stroke-linecap="round" stroke-linejoin="round"/>
<path d="M411.844 457.637H280.488V535.024H411.844V457.637Z" fill="#C53F3F" stroke="#263238" stroke-width="1.09543" stroke-linecap="round" stroke-linejoin="round"/>
<path d="M348.858 551.893C348.858 551.356 348.699 550.832 348.401 550.386C348.103 549.94 347.679 549.592 347.183 549.387C346.688 549.182 346.143 549.128 345.617 549.233C345.09 549.337 344.607 549.596 344.228 549.975C343.849 550.354 343.59 550.838 343.486 551.364C343.381 551.89 343.435 552.435 343.64 552.931C343.845 553.426 344.193 553.85 344.639 554.148C345.085 554.446 345.609 554.605 346.146 554.605C346.865 554.605 347.555 554.319 348.063 553.81C348.572 553.302 348.858 552.612 348.858 551.893Z" fill="#263238" stroke="#263238" stroke-width="1.09543" stroke-linecap="round" stroke-linejoin="round"/>
<path d="M369.781 581.914H322.538V584.111H369.781V581.914Z" fill="white" stroke="#263238" stroke-linecap="round" stroke-linejoin="round"/>
<path d="M329.508 456.416C329.508 456.416 323.121 454.64 318.497 458.192C313.873 461.745 313.534 470.966 316.368 475.59C319.202 480.214 323.148 483.034 318.145 486.234C313.141 489.434 309.629 491.563 310.334 497.231C311.039 502.9 316.368 510.371 324.884 510.724C333.4 511.076 343.705 503.632 343.705 495.469C343.705 487.306 337.671 481.977 339.8 477.366C341.929 472.756 348.316 466.708 343.353 460.321C338.39 453.934 329.508 456.416 329.508 456.416Z" fill="#263238" stroke="#263238" stroke-linecap="round" stroke-linejoin="round"/>
<path d="M392.047 533.844L377.619 503.157H312.476L300.272 533.844H392.047Z" fill="white" stroke="#263238" stroke-linecap="round" stroke-linejoin="round"/>
<path d="M367.72 533.844L377.619 503.158L344.926 485.354L312.477 503.158L320.179 533.844H367.72Z" fill="white" stroke="#263238" stroke-linecap="round" stroke-linejoin="round"/>
<path d="M339.325 488.418L330.037 493.584C328.328 498.208 326.796 505.3 331.393 509.368C334.24 511.945 345.224 503.7 345.224 503.7C345.224 503.7 353.034 512.216 359.421 509.368C363.95 507.361 361.889 499.32 359.163 493.096L349.034 487.591L339.325 488.418Z" fill="white" stroke="#263238" stroke-linecap="round" stroke-linejoin="round"/>
<path d="M335.976 477.041V490.601L339.433 500.69C339.78 501.712 340.439 502.598 341.319 503.223C342.198 503.848 343.252 504.18 344.331 504.171C345.41 504.162 346.458 503.813 347.327 503.173C348.196 502.533 348.84 501.636 349.169 500.609L352.492 490.398V476.255L335.976 477.041Z" fill="white" stroke="#263238" stroke-linecap="round" stroke-linejoin="round"/>
<path d="M332.41 461.732C332.41 461.732 328.979 455.643 327.08 459.02C325.182 462.396 327.84 469.665 328.979 471.563C330.118 473.461 332.03 470.424 332.03 470.424" fill="white"/>
<path d="M332.41 461.732C332.41 461.732 328.979 455.643 327.08 459.02C325.182 462.396 327.84 469.665 328.979 471.563C330.118 473.461 332.03 470.424 332.03 470.424" stroke="#263238" stroke-linecap="round" stroke-linejoin="round"/>
<path d="M356.898 461.732C356.898 461.732 360.329 455.643 362.228 459.02C364.126 462.396 361.468 469.665 360.329 471.563C359.19 473.461 357.278 470.424 357.278 470.424" fill="white"/>
<path d="M356.898 461.732C356.898 461.732 360.329 455.643 362.228 459.02C364.126 462.396 361.468 469.665 360.329 471.563C359.19 473.461 357.278 470.424 357.278 470.424" stroke="#263238" stroke-linecap="round" stroke-linejoin="round"/>
<path d="M358.621 460.593C358.621 471.292 352.329 486.045 344.559 486.045C336.789 486.045 330.497 471.292 330.497 460.593C330.497 449.894 336.802 441.202 344.559 441.202C352.315 441.202 358.621 449.881 358.621 460.593Z" fill="white" stroke="#263238" stroke-linecap="round" stroke-linejoin="round"/>
<path d="M339.122 452.159C339.122 452.159 341.969 445.772 346.58 452.159C351.19 458.545 349.061 463.169 352.966 464.579C353.968 465.023 355.096 465.087 356.141 464.76C357.187 464.433 358.077 463.738 358.648 462.803C358.648 462.803 369.659 455.359 358.648 443.29C356.499 440.956 353.852 439.135 350.904 437.961C347.956 436.787 344.782 436.292 341.617 436.51C335.935 436.876 335.23 443.968 335.23 443.968C335.23 443.968 330.959 442.911 329.196 447.874C327.433 452.837 330.959 466.681 330.959 463.142C330.959 459.603 335.582 448.606 339.122 452.159Z" fill="#263238" stroke="#263238" stroke-linecap="round" stroke-linejoin="round"/>
<path d="M535.484 396.359V384.02H499.144V396.359C499.146 400.387 497.784 404.297 495.279 407.451L493.692 409.512H540.935L539.335 407.505C536.828 404.332 535.471 400.403 535.484 396.359Z" fill="white" stroke="#263238" stroke-linecap="round" stroke-linejoin="round"/>
<g style="mix-blend-mode:multiply">
<path d="M496.906 404.997H537.708C536.249 402.352 535.484 399.38 535.484 396.359V384.02H499.144V396.359C499.145 399.382 498.375 402.355 496.906 404.997Z" fill="#C53F3F"/>
</g>
<path d="M535.484 385.877H499.144V391.084H535.484V385.877Z" fill="#263238" stroke="#263238" stroke-width="1.09543" stroke-linecap="round" stroke-linejoin="round"/>
<path d="M577.737 278.374H456.89C449.933 278.374 444.293 284.014 444.293 290.971V375.314C444.293 382.272 449.933 387.912 456.89 387.912H577.737C584.694 387.912 590.334 382.272 590.334 375.314V290.971C590.334 284.014 584.694 278.374 577.737 278.374Z" fill="#263238" stroke="#263238" stroke-width="1.09543" stroke-linecap="round" stroke-linejoin="round"/>
<path d="M444.293 370.88H590.334V375.3C590.334 376.955 590.008 378.593 589.375 380.121C588.742 381.65 587.814 383.038 586.645 384.208C585.475 385.378 584.086 386.306 582.558 386.939C581.029 387.572 579.391 387.898 577.737 387.898H456.89C455.236 387.898 453.598 387.572 452.069 386.939C450.541 386.306 449.152 385.378 447.983 384.208C446.813 383.038 445.885 381.65 445.252 380.121C444.619 378.593 444.293 376.955 444.293 375.3V370.88Z" fill="white" stroke="#263238" stroke-linecap="round" stroke-linejoin="round"/>
<path d="M582.985 285.194H451.629V362.581H582.985V285.194Z" fill="#C53F3F" stroke="#263238" stroke-width="1.09543" stroke-linecap="round" stroke-linejoin="round"/>
<path d="M519.998 379.396C519.998 378.859 519.839 378.335 519.541 377.889C519.243 377.443 518.82 377.095 518.324 376.89C517.828 376.685 517.283 376.631 516.757 376.736C516.231 376.84 515.748 377.099 515.369 377.478C514.989 377.857 514.731 378.34 514.626 378.867C514.522 379.393 514.575 379.938 514.781 380.433C514.986 380.929 515.334 381.353 515.78 381.651C516.226 381.949 516.75 382.108 517.286 382.108C518.006 382.108 518.695 381.822 519.204 381.313C519.713 380.805 519.998 380.115 519.998 379.396Z" fill="#263238" stroke="#263238" stroke-width="1.09543" stroke-linecap="round" stroke-linejoin="round"/>
<path d="M540.935 409.458H493.692V411.655H540.935V409.458Z" fill="white" stroke="#263238" stroke-linecap="round" stroke-linejoin="round"/>
<path d="M562.943 362.026L548.759 331.868H483.617L471.644 362.026H562.943Z" fill="white" stroke="#263238" stroke-linecap="round" stroke-linejoin="round"/>
<path d="M548.759 362.025V331.868L523.538 317.399L516.066 314.063L507.659 317.399L483.617 331.868V362.025H548.759Z" fill="white" stroke="#263238" stroke-linecap="round" stroke-linejoin="round"/>
<path d="M510.194 336.288L514.642 343.285L512.418 361.713H520.364L516.554 343.285L521.639 335.976L514.967 328.342L510.194 336.288Z" fill="#263238" stroke="#263238" stroke-linecap="round" stroke-linejoin="round"/>
<path d="M515.578 334.377L508.608 339.787L503.523 320.396L507.659 317.399H523.538L527.037 319.772L524.175 340.099L515.578 334.377Z" fill="white" stroke="#263238" stroke-linecap="round" stroke-linejoin="round"/>
<path d="M507.116 305.751V319.325L515.578 334.376L523.646 319.135V304.965L507.116 305.751Z" fill="white" stroke="#263238" stroke-linecap="round" stroke-linejoin="round"/>
<path d="M503.55 290.442C503.55 290.442 500.133 284.353 498.235 287.73C496.336 291.106 498.994 298.361 500.133 300.273C501.272 302.185 503.171 299.134 503.171 299.134" fill="white"/>
<path d="M503.55 290.442C503.55 290.442 500.133 284.353 498.235 287.73C496.336 291.106 498.994 298.361 500.133 300.273C501.272 302.185 503.171 299.134 503.171 299.134" stroke="#263238" stroke-linecap="round" stroke-linejoin="round"/>
<path d="M528.053 290.442C528.053 290.442 531.47 284.353 533.368 287.73C535.267 291.106 532.609 298.361 531.47 300.273C530.331 302.185 528.432 299.134 528.432 299.134" fill="white"/>
<path d="M528.053 290.442C528.053 290.442 531.47 284.353 533.368 287.73C535.267 291.106 532.609 298.361 531.47 300.273C530.331 302.185 528.432 299.134 528.432 299.134" stroke="#263238" stroke-linecap="round" stroke-linejoin="round"/>
<path d="M529.775 289.303C529.775 300.002 523.484 314.769 515.714 314.769C507.944 314.769 501.72 300.002 501.72 289.303C501.72 278.604 508.012 269.912 515.781 269.912C523.551 269.912 529.775 278.591 529.775 289.303Z" fill="white" stroke="#263238" stroke-linecap="round" stroke-linejoin="round"/>
<path d="M498.764 347.408L508.771 362.025H522.941L533.396 351.218L526.724 342.96L534.983 342.323L534.033 323.895L527.036 319.772L515.28 361.714L503.523 320.396L497.801 323.895L495.577 340.424L502.574 341.685L498.764 347.408Z" fill="white" stroke="#263238" stroke-linecap="round" stroke-linejoin="round"/>
<path d="M501.625 292.123C501.625 292.123 504.771 292.53 504.161 291.486C503.55 290.442 504.161 286.726 504.161 286.726C504.886 286.147 505.435 285.377 505.747 284.503C506.385 282.916 504.798 280.679 504.798 278.78C504.798 276.882 514.643 280.679 516.229 280.679C517.816 280.679 526.725 278.455 526.725 278.455C526.725 278.455 525.124 284.177 526.087 284.815C527.05 285.452 527.674 288.313 527.674 288.313C527.674 288.313 526.725 293.398 527.036 294.347C527.348 295.296 529.26 295.934 529.586 294.985C529.911 294.035 529.898 285.764 529.898 285.764C529.898 285.764 532.121 286.089 532.121 281.696C532.121 277.302 529.586 267.39 525.124 265.492C520.663 263.593 510.52 263.58 506.385 265.803C502.249 268.027 499.388 278.197 500.35 281.696C501.048 285.133 501.474 288.619 501.625 292.123Z" fill="#263238" stroke="#263238" stroke-linecap="round" stroke-linejoin="round"/>
<path d="M364.33 228.08V215.74H327.989V228.08C327.989 232.101 326.632 236.004 324.138 239.158L322.538 241.179H369.781L368.195 239.158C365.691 236.009 364.328 232.103 364.33 228.08Z" fill="white" stroke="#263238" stroke-linecap="round" stroke-linejoin="round"/>
<g style="mix-blend-mode:multiply">
<path d="M325.765 236.718H366.567C365.098 234.076 364.327 231.103 364.329 228.08V215.74H327.988V228.08C327.989 231.101 327.223 234.072 325.765 236.718Z" fill="#C53F3F"/>
</g>
<path d="M364.33 217.598H327.989V222.805H364.33V217.598Z" fill="#263238" stroke="#263238" stroke-width="1.09543" stroke-linecap="round" stroke-linejoin="round"/>
<path d="M406.583 110.094H285.736C278.779 110.094 273.139 115.734 273.139 122.691V207.034C273.139 213.991 278.779 219.631 285.736 219.631H406.583C413.54 219.631 419.18 213.991 419.18 207.034V122.691C419.18 115.734 413.54 110.094 406.583 110.094Z" fill="#263238" stroke="#263238" stroke-width="1.09543" stroke-linecap="round" stroke-linejoin="round"/>
<path d="M273.139 202.601H419.18V207.021C419.18 210.362 417.853 213.566 415.49 215.929C413.128 218.291 409.924 219.618 406.583 219.618H285.736C282.395 219.618 279.191 218.291 276.828 215.929C274.466 213.566 273.139 210.362 273.139 207.021V202.601Z" fill="white" stroke="#263238" stroke-linecap="round" stroke-linejoin="round"/>
<path d="M411.844 116.901H280.488V194.288H411.844V116.901Z" fill="#C53F3F" stroke="#263238" stroke-width="1.09543" stroke-linecap="round" stroke-linejoin="round"/>
<path d="M346.159 213.815C347.65 213.815 348.858 212.607 348.858 211.116C348.858 209.626 347.65 208.418 346.159 208.418C344.669 208.418 343.461 209.626 343.461 211.116C343.461 212.607 344.669 213.815 346.159 213.815Z" fill="#263238" stroke="#263238" stroke-width="1.09543" stroke-linecap="round" stroke-linejoin="round"/>
<path d="M369.781 241.179H322.538V243.375H369.781V241.179Z" fill="white" stroke="#263238" stroke-linecap="round" stroke-linejoin="round"/>
<path d="M392.047 193.949L377.619 163.263H312.476L300.272 193.949H392.047Z" fill="white" stroke="#263238" stroke-linecap="round" stroke-linejoin="round"/>
<path d="M323.121 124.875C323.121 124.875 320.775 135.817 323.121 140.279C325.467 144.74 328.775 150.083 326.985 153.947C325.195 157.812 323.419 158.693 322.822 166.151C322.226 173.609 334.118 188.43 347.786 186.939C361.455 185.447 369.482 174.165 367.096 164.958C364.709 155.751 360.858 154.557 362.038 148.686C363.218 142.814 366.201 138.882 364.75 130.868C363.299 122.854 356.139 109.769 347.529 106.799C338.918 103.829 333.494 107.992 330.294 113.579C327.094 119.166 323.69 122.556 323.121 124.875Z" fill="#263238" stroke="#263238" stroke-linecap="round" stroke-linejoin="round"/>
<path d="M367.72 193.949L377.619 163.262L344.926 145.458L312.477 163.262L320.179 193.949H367.72Z" fill="white" stroke="#263238" stroke-linecap="round" stroke-linejoin="round"/>
<path d="M332.179 152.455L328.789 162.855L336.518 164.93L329.684 169.988L343.949 183.941L357.319 171.466L350.783 165.228L359.991 162.855L357.577 152.36L344.925 145.458L332.179 152.455Z" fill="white" stroke="#263238" stroke-linecap="round" stroke-linejoin="round"/>
<path d="M335.976 137.146V150.719L344.423 175.331L352.492 150.516V136.359L335.976 137.146Z" fill="white" stroke="#263238" stroke-linecap="round" stroke-linejoin="round"/>
<path d="M332.41 121.836C332.41 121.836 328.979 115.748 327.08 119.124C325.182 122.501 327.84 129.755 328.979 131.667C330.118 133.579 332.03 130.515 332.03 130.515" fill="white"/>
<path d="M332.41 121.836C332.41 121.836 328.979 115.748 327.08 119.124C325.182 122.501 327.84 129.755 328.979 131.667C330.118 133.579 332.03 130.515 332.03 130.515" stroke="#263238" stroke-linecap="round" stroke-linejoin="round"/>
<path d="M356.898 121.836C356.898 121.836 360.329 115.748 362.228 119.124C364.126 122.501 361.468 129.755 360.329 131.667C359.19 133.579 357.278 130.515 357.278 130.515" fill="white"/>
<path d="M356.898 121.836C356.898 121.836 360.329 115.748 362.228 119.124C364.126 122.501 361.468 129.755 360.329 131.667C359.19 133.579 357.278 130.515 357.278 130.515" stroke="#263238" stroke-linecap="round" stroke-linejoin="round"/>
<path d="M358.621 120.685C358.621 131.384 352.329 146.15 344.559 146.15C336.789 146.15 330.497 131.397 330.497 120.685C330.497 109.972 336.802 101.294 344.559 101.294C352.315 101.294 358.621 109.986 358.621 120.685Z" fill="white" stroke="#263238" stroke-linecap="round" stroke-linejoin="round"/>
<path d="M341.861 106.704C341.861 103.558 340.911 99.3275 336.545 100.792C331.406 102.541 328.016 113.525 325.534 118C324.262 120.099 323.44 122.44 323.121 124.875C321.9 132.468 328.206 138.787 328.206 138.787C328.206 138.787 326.714 130.773 327.609 125.417C328.111 122.434 329.616 121.349 332.247 120.278C338.267 117.972 341.861 113.525 341.861 106.704Z" fill="#263238" stroke="#263238" stroke-linecap="round" stroke-linejoin="round"/>
<path d="M369.13 121.633C367.211 118.404 364.826 115.475 362.052 112.942C358.784 109.674 357.007 101.66 349.576 98.9747C342.146 96.2898 338.878 99.8697 339.176 105.226C339.222 106.082 339.331 106.935 339.501 107.775C339.495 107.816 339.495 107.857 339.501 107.897C339.501 107.897 339.501 108.033 339.637 108.29C339.858 109.723 340.544 111.043 341.59 112.047L341.779 112.182C343.302 114.378 345.027 116.425 346.932 118.298C353.17 124.535 360.899 130.176 361.197 136.712C361.428 142.055 359.516 146.204 358.485 151.628H358.228C357.639 154.53 356.427 157.269 354.675 159.656C351.963 162.924 351.692 165.297 357.943 165.595C366.296 165.988 370.459 154.91 371.611 148.184C372.755 141.962 372.801 135.587 371.747 129.349C371.289 126.655 370.406 124.05 369.13 121.633Z" fill="#263238" stroke="#263238" stroke-linecap="round" stroke-linejoin="round"/>
<path d="M193.189 396.359V384.02H156.849V396.359C156.845 400.386 155.483 404.294 152.984 407.451L151.397 409.512H198.627L197.04 407.505C194.534 404.332 193.176 400.403 193.189 396.359Z" fill="white" stroke="#263238" stroke-linecap="round" stroke-linejoin="round"/>
<g style="mix-blend-mode:multiply">
<path d="M154.584 404.997H195.386C193.927 402.352 193.162 399.38 193.162 396.359V384.02H156.821V396.359C156.817 399.381 156.047 402.353 154.584 404.997Z" fill="#C53F3F"/>
</g>
<path d="M193.189 385.877H156.849V391.084H193.189V385.877Z" fill="#263238" stroke="#263238" stroke-width="1.09543" stroke-linecap="round" stroke-linejoin="round"/>
<path d="M235.442 278.373H114.595C107.638 278.373 101.998 284.013 101.998 290.97V375.313C101.998 382.271 107.638 387.911 114.595 387.911H235.442C242.399 387.911 248.039 382.271 248.039 375.313V290.97C248.039 284.013 242.399 278.373 235.442 278.373Z" fill="#263238" stroke="#263238" stroke-width="1.09543" stroke-linecap="round" stroke-linejoin="round"/>
<path d="M101.998 370.88H248.039V375.3C248.039 376.955 247.713 378.593 247.08 380.121C246.447 381.65 245.519 383.038 244.35 384.208C243.18 385.378 241.791 386.306 240.263 386.939C238.734 387.572 237.096 387.898 235.442 387.898H114.595C112.941 387.898 111.303 387.572 109.775 386.939C108.246 386.306 106.857 385.378 105.688 384.208C104.518 383.038 103.59 381.65 102.957 380.121C102.324 378.593 101.998 376.955 101.998 375.3V370.88Z" fill="white" stroke="#263238" stroke-linecap="round" stroke-linejoin="round"/>
<path d="M240.69 285.194H109.334V362.581H240.69V285.194Z" fill="#C53F3F" stroke="#263238" stroke-width="1.09543" stroke-linecap="round" stroke-linejoin="round"/>
<path d="M177.703 379.396C177.703 378.859 177.544 378.335 177.246 377.889C176.948 377.443 176.525 377.095 176.029 376.89C175.534 376.685 174.988 376.631 174.462 376.736C173.936 376.84 173.453 377.099 173.074 377.478C172.694 377.857 172.436 378.34 172.331 378.867C172.227 379.393 172.28 379.938 172.486 380.433C172.691 380.929 173.039 381.353 173.485 381.651C173.931 381.949 174.455 382.108 174.991 382.108C175.711 382.108 176.4 381.822 176.909 381.313C177.418 380.805 177.703 380.115 177.703 379.396Z" fill="#263238" stroke="#263238" stroke-width="1.09543" stroke-linecap="round" stroke-linejoin="round"/>
<path d="M198.641 409.458H151.397V411.655H198.641V409.458Z" fill="white" stroke="#263238" stroke-linecap="round" stroke-linejoin="round"/>
<path d="M220.892 362.242L206.465 331.542H141.322L129.132 362.242H220.892Z" fill="white" stroke="#263238" stroke-linecap="round" stroke-linejoin="round"/>
<path d="M206.464 362.241V331.542L185.365 317.087L173.771 313.737L162.178 317.087L141.322 331.542V362.241H206.464Z" fill="white" stroke="#263238" stroke-linecap="round" stroke-linejoin="round"/>
<path d="M166.788 311.053C166.788 311.053 162.15 312.409 161.215 313.372C160.279 314.334 159.587 319.175 158.665 321.724C157.743 324.274 154.719 328.681 155.655 328.911C156.591 329.142 164.469 325.196 164.469 325.196L173.514 335.447L182.097 324.735C182.097 324.735 188.877 329.847 189.284 329.142C189.691 328.437 186.274 320.097 186.043 316.612C185.812 313.127 180.7 311.975 177.69 311.744C174.68 311.514 166.788 311.053 166.788 311.053Z" fill="white" stroke="#263238" stroke-linecap="round" stroke-linejoin="round"/>
<path d="M164.821 305.439V318.999L173.283 334.579L181.351 318.809V304.639L164.821 305.439Z" fill="white" stroke="#263238" stroke-linecap="round" stroke-linejoin="round"/>
<path d="M161.255 290.185C161.255 290.185 157.838 284.11 155.94 287.473C154.041 290.835 156.699 298.117 157.838 300.016C158.977 301.914 160.876 298.876 160.876 298.876" fill="white"/>
<path d="M161.255 290.185C161.255 290.185 157.838 284.11 155.94 287.473C154.041 290.835 156.699 298.117 157.838 300.016C158.977 301.914 160.876 298.876 160.876 298.876" stroke="#263238" stroke-linecap="round" stroke-linejoin="round"/>
<path d="M185.771 290.185C185.771 290.185 189.189 284.11 191.087 287.473C192.985 290.835 190.328 298.117 189.189 300.016C188.05 301.914 186.151 298.876 186.151 298.876" fill="white"/>
<path d="M185.771 290.185C185.771 290.185 189.189 284.11 191.087 287.473C192.985 290.835 190.328 298.117 189.189 300.016C188.05 301.914 186.151 298.876 186.151 298.876" stroke="#263238" stroke-linecap="round" stroke-linejoin="round"/>
<path d="M187.48 288.977C187.48 299.676 181.188 314.443 173.418 314.443C165.648 314.443 159.356 299.676 159.356 288.977C159.356 278.278 165.648 269.6 173.418 269.6C181.188 269.6 187.48 278.278 187.48 288.977Z" fill="white" stroke="#263238" stroke-linecap="round" stroke-linejoin="round"/>
<path d="M184.497 283.607C184.497 283.607 183.507 286.319 184.687 287.539C185.867 288.76 185.677 290.482 185.473 292.841C185.27 295.201 185.867 296.584 186.653 295.797C187.44 295.011 188.226 284 188.226 283.214C188.226 282.427 184.497 283.607 184.497 283.607Z" fill="#263238" stroke="#263238" stroke-linecap="round" stroke-linejoin="round"/>
<path d="M159.52 287.336L159.913 293.438C160.068 293.493 160.232 293.516 160.396 293.506C160.56 293.496 160.72 293.453 160.867 293.38C161.013 293.306 161.144 293.204 161.25 293.079C161.357 292.954 161.437 292.809 161.486 292.652C161.879 291.472 160.889 287.73 161.879 285.763C162.869 283.797 166.598 282.821 166.788 281.438C166.978 280.055 164.822 277.505 164.822 276.529C164.822 275.553 165.418 274.563 170.327 279.241C175.236 283.919 184.294 284.936 189.013 283.757C193.731 282.577 188.036 275.499 186.857 273.926C185.677 272.353 190.002 273.532 187.643 269.6C185.284 265.668 177.012 263.105 168.754 266.061C160.496 269.017 155.777 273.139 156.957 277.275C158.136 281.411 159.52 287.336 159.52 287.336Z" fill="#263238" stroke="#263238" stroke-linecap="round" stroke-linejoin="round"/>
<path d="M346.716 387.626V430.218" stroke="#263238" stroke-width="2" stroke-miterlimit="10"/>
<path d="M339.814 428.198L346.716 440.131L353.605 428.198H339.814Z" fill="#263238"/>
<path d="M346.716 296.436V253.844" stroke="#263238" stroke-width="2" stroke-miterlimit="10"/>
<path d="M353.605 255.863L346.716 243.931L339.814 255.863H353.605Z" fill="#263238"/>
<path d="M301.127 342.037H258.535" stroke="#263238" stroke-width="2" stroke-miterlimit="10"/>
<path d="M260.556 335.136L248.609 342.038L260.556 348.926V335.136Z" fill="#263238"/>
<path d="M272.598 235.253L241.45 266.4" stroke="#263238" stroke-width="2" stroke-miterlimit="10"/>
<path d="M266.292 231.795L279.608 228.229L276.042 241.558L266.292 231.795Z" fill="#263238"/>
<path d="M237.992 260.095L234.426 273.424L247.755 269.858L237.992 260.095Z" fill="#263238"/>
<path d="M422.978 235.253L454.125 266.4" stroke="#263238" stroke-width="2" stroke-miterlimit="10"/>
<path d="M419.519 241.558L415.953 228.229L429.269 231.808L419.519 241.558Z" fill="#263238"/>
<path d="M447.819 269.858L461.135 273.424L457.569 260.095L447.819 269.858Z" fill="#263238"/>
<path d="M272.598 442.856L241.45 411.709" stroke="#263238" stroke-width="2" stroke-miterlimit="10"/>
<path d="M276.042 436.564L279.621 449.88L266.292 446.314L276.042 436.564Z" fill="#263238"/>
<path d="M247.755 408.264L234.426 404.698L237.992 418.014L247.755 408.264Z" fill="#263238"/>
<path d="M422.978 442.856L454.125 411.709" stroke="#263238" stroke-width="2" stroke-miterlimit="10"/>
<path d="M429.269 446.314L415.953 449.88L419.519 436.564L429.269 446.314Z" fill="#263238"/>
<path d="M457.569 418.014L461.135 404.698L447.819 408.264L457.569 418.014Z" fill="#263238"/>
<path d="M392.305 342.037H434.897" stroke="#263238" stroke-width="2" stroke-miterlimit="10"/>
<path d="M432.876 348.926L444.822 342.038L432.876 335.136V348.926Z" fill="#263238"/>
<path d="M348.371 345.225H344.194V360.412H348.371C354.663 360.412 356.602 357.578 356.602 352.561C356.602 347.543 354.663 345.225 348.371 345.225Z" fill="#263238"/>
<path d="M346.16 288.068C335.62 288.068 325.317 291.194 316.553 297.049C307.79 302.905 300.959 311.228 296.926 320.966C292.892 330.703 291.837 341.418 293.893 351.756C295.949 362.093 301.025 371.589 308.478 379.041C315.931 386.494 325.426 391.57 335.763 393.626C346.101 395.682 356.816 394.627 366.553 390.593C376.291 386.56 384.614 379.73 390.47 370.966C396.325 362.202 399.451 351.899 399.451 341.359C399.451 327.226 393.836 313.671 383.842 303.677C373.848 293.683 360.294 288.068 346.16 288.068ZM346.16 386.799C337.17 386.799 328.382 384.133 320.908 379.138C313.433 374.144 307.607 367.045 304.167 358.74C300.727 350.434 299.826 341.295 301.58 332.478C303.334 323.661 307.663 315.562 314.02 309.205C320.376 302.849 328.475 298.52 337.293 296.766C346.11 295.012 355.249 295.912 363.554 299.352C371.86 302.793 378.958 308.618 383.953 316.093C388.947 323.568 391.613 332.356 391.613 341.346C391.602 353.397 386.81 364.952 378.288 373.474C369.767 381.996 358.212 386.788 346.16 386.799Z" fill="#263238"/>
<path d="M355.408 330.946C355.408 326.525 353.469 324.355 347.923 324.355H344.194V337.644H347.923C353.388 337.644 355.408 335.353 355.408 330.946Z" fill="#263238"/>
<path d="M346.16 299.025C337.786 299.023 329.6 301.504 322.636 306.154C315.672 310.805 310.243 317.417 307.038 325.153C303.832 332.889 302.992 341.402 304.625 349.615C306.258 357.829 310.291 365.373 316.212 371.295C322.133 377.216 329.678 381.248 337.891 382.881C346.104 384.514 354.618 383.675 362.354 380.469C370.09 377.263 376.701 371.835 381.352 364.871C386.003 357.907 388.484 349.72 388.481 341.346C388.47 330.125 384.008 319.367 376.074 311.433C368.139 303.498 357.381 299.036 346.16 299.025ZM354.649 366.12V375.612H349.225V366.5H344.235V375.612H338.811V366.514H326.81V359.367H329.17C329.686 359.282 330.161 359.033 330.525 358.657C330.888 358.281 331.122 357.798 331.19 357.279V327.108C331.124 326.589 330.891 326.105 330.527 325.728C330.163 325.352 329.687 325.103 329.17 325.02H326.81V317.928H338.811V308.761H344.235V317.928H348.493H349.333V308.761H354.757V318.335C363.232 319.542 367.707 323.501 367.707 330.43C367.707 336.546 364.236 339.543 357.849 340.858V341.129C365.28 342.241 369.375 345.862 369.375 352.452C369.267 360.344 363.775 364.886 354.649 366.12Z" fill="#263238"/>
</svg>
