<svg width="549" height="554" viewBox="0 0 549 554" fill="none" xmlns="http://www.w3.org/2000/svg">
<g clip-path="url(#clip0_46_9145)">
<path d="M274.5 473.736C392.077 473.736 487.391 468.121 487.391 461.194C487.391 454.267 392.077 448.651 274.5 448.651C156.924 448.651 61.6089 454.267 61.6089 461.194C61.6089 468.121 156.924 473.736 274.5 473.736Z" fill="#F5F5F5"/>
<path d="M549.132 423.211H0.131836V423.488H549.132V423.211Z" fill="#E0E0E0"/>
<path d="M120.275 436.496H56.8438V436.773H120.275V436.496Z" fill="#E0E0E0"/>
<path d="M258.887 430.479H229.987V430.756H258.887V430.479Z" fill="#E0E0E0"/>
<path d="M325.755 430.336H269.449V430.613H325.755V430.336Z" fill="#E0E0E0"/>
<path d="M432.93 433.66H419.216V433.937H432.93V433.66Z" fill="#E0E0E0"/>
<path d="M371.86 433.66H317.157V433.937H371.86V433.66Z" fill="#E0E0E0"/>
<path d="M141.774 436.496H130.904V436.773H141.774V436.496Z" fill="#E0E0E0"/>
<path d="M489.379 433.66H441.89V433.937H489.379V433.66Z" fill="#E0E0E0"/>
<path d="M260.358 60.4521H48.3123C46.9776 60.4534 45.678 60.8837 44.602 61.6806C43.526 62.4775 42.7296 63.5996 42.3282 64.8841C42.1473 65.4612 42.0548 66.0628 42.0537 66.668V367.468C42.0537 369.144 42.7127 370.751 43.8861 371.938C45.0595 373.124 46.6514 373.792 48.3123 373.795H260.358C262.021 373.795 263.616 373.128 264.791 371.941C265.967 370.755 266.628 369.146 266.628 367.468V66.7788C266.628 65.1009 265.967 63.4917 264.791 62.3052C263.616 61.1187 262.021 60.4521 260.358 60.4521ZM266.353 367.468C266.35 369.071 265.718 370.608 264.594 371.742C263.47 372.876 261.947 373.515 260.358 373.518H48.3123C46.7242 373.515 45.2022 372.876 44.0802 371.742C42.9583 370.607 42.3282 369.07 42.3282 367.468V66.7234C42.3282 65.1209 42.9583 63.5838 44.0802 62.4496C45.2022 61.3154 46.7242 60.6767 48.3123 60.6737H260.358C261.946 60.6796 263.468 61.3188 264.591 62.4521C265.714 63.5854 266.347 65.1207 266.353 66.7234V367.468Z" fill="#E0E0E0"/>
<path d="M497.866 60.4521H285.842C284.19 60.455 282.605 61.1149 281.432 62.2888C280.258 63.4627 279.59 65.056 279.573 66.7234V367.468C279.573 369.146 280.233 370.755 281.409 371.941C282.585 373.128 284.18 373.795 285.842 373.795H497.866C499.525 373.789 501.114 373.12 502.285 371.934C503.456 370.748 504.114 369.142 504.114 367.468V66.7234C504.099 65.0589 503.435 63.4672 502.266 62.2933C501.096 61.1194 499.516 60.4579 497.866 60.4521ZM503.861 367.468C503.858 369.071 503.226 370.608 502.102 371.742C500.978 372.876 499.455 373.515 497.866 373.518H285.842C284.252 373.518 282.727 372.88 281.603 371.746C280.479 370.611 279.847 369.072 279.847 367.468V66.7234C279.85 65.1199 280.483 63.5828 281.606 62.4489C282.73 61.315 284.253 60.6767 285.842 60.6737H497.866C499.454 60.6796 500.976 61.3188 502.099 62.4521C503.222 63.5854 503.855 65.1207 503.861 66.7234V367.468Z" fill="#E0E0E0"/>
<path d="M407.523 114.888H523.746C523.746 114.888 516.73 102.058 502.258 106.024C502.258 106.024 504.015 84.5845 492.607 81.1497C481.199 77.7149 475.039 90.9777 475.039 90.9777C475.039 90.9777 467.144 66.1917 452.234 69.2941C437.323 72.3965 431.185 98.1021 431.185 98.1021C431.185 98.1021 409.28 90.1023 407.523 114.888Z" fill="#F5F5F5"/>
<path d="M239.485 156.848H355.752C355.752 156.848 348.725 144.006 334.253 147.984C334.253 147.984 336.01 126.544 324.602 123.098C313.194 119.652 307.034 132.937 307.034 132.937C307.034 132.937 299.139 108.151 284.228 111.242C269.318 114.334 263.169 140.05 263.169 140.05C263.169 140.05 241.242 132.062 239.485 156.848Z" fill="#F5F5F5"/>
<path d="M237.377 77.7812H42.4487V423.211H237.377V77.7812Z" fill="#F5F5F5"/>
<path d="M204.898 188.094H81.3291V423.488H204.898V188.094Z" fill="#FAFAFA"/>
<path d="M197.091 195.572H90.2339V423.488H197.091V195.572Z" fill="#E6E6E6"/>
<path d="M244.437 80.2965H42.4048V64.9396C42.9133 63.6037 43.8201 62.4599 45.0001 61.6661C46.1801 60.8722 47.5752 60.4675 48.9928 60.5076H237.53L237.618 60.7292L242.57 74.9892L244.437 80.2965Z" fill="#EBEBEB"/>
<path d="M52.199 89.5704C57.784 89.5704 62.3116 85.4183 62.3116 80.2964C62.3116 75.1746 57.784 71.0225 52.199 71.0225C46.614 71.0225 42.0864 75.1746 42.0864 80.2964C42.0864 85.4183 46.614 89.5704 52.199 89.5704Z" fill="#EBEBEB"/>
<path d="M72.4353 89.5704C78.0204 89.5704 82.5479 85.4183 82.5479 80.2964C82.5479 75.1746 78.0204 71.0225 72.4353 71.0225C66.8503 71.0225 62.3228 75.1746 62.3228 80.2964C62.3228 85.4183 66.8503 89.5704 72.4353 89.5704Z" fill="#EBEBEB"/>
<path d="M92.6712 89.5704C98.2562 89.5704 102.784 85.4183 102.784 80.2964C102.784 75.1746 98.2562 71.0225 92.6712 71.0225C87.0861 71.0225 82.5586 75.1746 82.5586 80.2964C82.5586 85.4183 87.0861 89.5704 92.6712 89.5704Z" fill="#EBEBEB"/>
<path d="M112.908 89.5704C118.493 89.5704 123.02 85.4183 123.02 80.2964C123.02 75.1746 118.493 71.0225 112.908 71.0225C107.322 71.0225 102.795 75.1746 102.795 80.2964C102.795 85.4183 107.322 89.5704 112.908 89.5704Z" fill="#EBEBEB"/>
<path d="M133.143 89.5704C138.728 89.5704 143.256 85.4183 143.256 80.2964C143.256 75.1746 138.728 71.0225 133.143 71.0225C127.558 71.0225 123.031 75.1746 123.031 80.2964C123.031 85.4183 127.558 89.5704 133.143 89.5704Z" fill="#EBEBEB"/>
<path d="M153.38 89.5704C158.965 89.5704 163.492 85.4183 163.492 80.2964C163.492 75.1746 158.965 71.0225 153.38 71.0225C147.795 71.0225 143.267 75.1746 143.267 80.2964C143.267 85.4183 147.795 89.5704 153.38 89.5704Z" fill="#EBEBEB"/>
<path d="M173.605 89.5704C179.19 89.5704 183.717 85.4183 183.717 80.2964C183.717 75.1746 179.19 71.0225 173.605 71.0225C168.02 71.0225 163.492 75.1746 163.492 80.2964C163.492 85.4183 168.02 89.5704 173.605 89.5704Z" fill="#EBEBEB"/>
<path d="M193.841 89.5704C199.426 89.5704 203.954 85.4183 203.954 80.2964C203.954 75.1746 199.426 71.0225 193.841 71.0225C188.256 71.0225 183.729 75.1746 183.729 80.2964C183.729 85.4183 188.256 89.5704 193.841 89.5704Z" fill="#EBEBEB"/>
<path d="M214.077 89.5704C219.662 89.5704 224.19 85.4183 224.19 80.2964C224.19 75.1746 219.662 71.0225 214.077 71.0225C208.492 71.0225 203.964 75.1746 203.964 80.2964C203.964 85.4183 208.492 89.5704 214.077 89.5704Z" fill="#EBEBEB"/>
<path d="M244.437 80.2965C244.437 85.4155 239.902 89.5705 234.314 89.5705C228.725 89.5705 224.19 85.4155 224.19 80.2965C224.19 75.1775 228.725 71.0225 234.314 71.0225C235.894 71 237.458 71.3404 238.889 72.018C240.319 72.6956 241.578 73.6927 242.57 74.9338L244.437 80.2965Z" fill="#EBEBEB"/>
<path d="M237.377 107.764H42.4487V110.999H237.377V107.764Z" fill="#FAFAFA"/>
<path d="M388.582 349.995H237.388V356.854H388.582V349.995Z" fill="#E0E0E0"/>
<path d="M269.186 423.2H246.358V316.289L257.767 306.45L269.186 316.289V423.2Z" fill="#E6E6E6"/>
<path d="M301.884 423.2H279.057V316.289L290.476 306.45L301.884 316.289V423.2Z" fill="#E6E6E6"/>
<path d="M334.594 423.2H311.766V316.289L323.174 306.45L334.594 316.289V423.2Z" fill="#E6E6E6"/>
<path d="M367.292 423.2H344.465V316.289L355.884 306.45L367.292 316.289V423.2Z" fill="#E6E6E6"/>
<path d="M399.99 423.2H377.174V316.289L388.582 306.45L399.99 316.289V423.2Z" fill="#E6E6E6"/>
<path d="M164.118 99.2542C164.118 99.2542 161.999 94.0245 148.944 95.5757C135.888 97.1269 134.538 114.567 128.016 126.965C121.494 139.364 114.565 145.38 114.565 145.38C114.565 145.38 113.61 152.937 127.818 157.203C142.026 161.468 169.871 154.344 169.871 154.344C169.871 154.344 173.473 121.337 168.126 111.265C162.778 101.193 164.118 99.2542 164.118 99.2542Z" fill="#263238"/>
<path d="M202.284 428.962L184.596 430.07C184.596 430.07 177.096 361.286 168.839 311.204C168.839 311.038 168.839 310.849 168.763 310.661C165.381 290.218 161.878 272.989 158.716 264.912C158.716 264.912 154.653 329.032 153.445 357.496C152.238 385.961 146.605 435.765 146.605 435.765L130.256 438.214C130.256 438.214 127.555 339.07 129.158 320.345C130.761 301.62 123.459 232.259 136.042 215.085H181.554C181.554 215.085 199.177 312.522 200.451 339.536C201.725 366.549 202.284 428.962 202.284 428.962Z" fill="#263238"/>
<path d="M142.762 435.986L142.498 441.305L141.883 453.615L132.726 454.989L132.517 441.704L132.44 436.596L142.762 435.986Z" fill="#FF8B7B"/>
<path d="M198.353 449.471L188.109 452.352C188.109 452.352 187.868 446.136 187.626 440.164C187.472 436.319 187.318 432.574 187.22 430.657C187.22 429.915 187.154 429.461 187.132 429.361L198.178 428.253V431.754L198.255 439.665L198.353 449.471Z" fill="#FF8B7B"/>
<path d="M145.573 450.889C145.573 450.889 147.275 444.009 149.965 444.352C152.655 444.696 145.573 450.889 145.573 450.889Z" stroke="#C53F3F" stroke-miterlimit="10"/>
<path d="M146.341 450.889C146.341 450.889 152.743 446.336 153.928 448.673C155.114 451.011 146.341 450.889 146.341 450.889Z" stroke="#C53F3F" stroke-miterlimit="10"/>
<path d="M202.284 451.587C202.284 451.587 203.712 444.308 205.326 444.308C206.94 444.308 202.284 451.587 202.284 451.587Z" stroke="#C53F3F" stroke-miterlimit="10"/>
<path d="M201.944 453.848C201.944 453.848 205.699 446.391 207.664 447.997C209.63 449.604 201.944 453.848 201.944 453.848Z" stroke="#C53F3F" stroke-miterlimit="10"/>
<path d="M153.566 459.82C153.566 459.82 134.044 460.33 132.627 460.152C131.211 459.975 129.641 459.897 129.531 458.346C129.531 457.593 130.201 453.017 130.31 451.421C130.42 449.826 130.025 448.995 132.012 448.485C134 447.975 143.651 446.845 144.815 448.053C145.979 449.261 149.954 453.859 152.896 454.391C155.839 454.923 158.309 454.712 158.518 456.396C158.727 458.08 158.792 459.698 153.566 459.82Z" fill="#263238"/>
<path d="M209.773 459.82C209.773 459.82 190.261 460.33 188.834 460.152C187.406 459.975 186.001 459.543 185.77 458.823C185.54 458.102 186.418 453.017 186.517 451.421C186.616 449.826 186.232 448.995 188.219 448.485C190.206 447.975 199.858 446.845 201.022 448.053C202.185 449.261 206.16 453.859 209.114 454.391C212.067 454.923 214.516 454.712 214.725 456.396C214.933 458.08 214.999 459.698 209.773 459.82Z" fill="#263238"/>
<path opacity="0.3" d="M168.763 310.649C165.381 290.207 161.878 272.977 158.716 264.9L160.813 253.288C160.813 253.288 166.248 294.727 168.763 310.649Z" fill="black"/>
<path opacity="0.2" d="M142.74 435.986L142.476 441.305C139.907 441.404 134.79 441.593 132.495 441.704L132.418 436.596L142.74 435.986Z" fill="black"/>
<path opacity="0.2" d="M198.277 439.654L187.626 440.164C187.472 436.319 187.319 432.574 187.22 430.657L198.2 431.765L198.277 439.654Z" fill="black"/>
<path d="M205.304 428.241L203.668 436.673L184.167 438.202L181.609 428.241H205.304Z" fill="#C53F3F"/>
<path d="M149.229 430.989L147.516 439.321L127.159 440.296L127.17 430.989H149.229Z" fill="#C53F3F"/>
<path d="M209.608 189.346C205.216 191.462 193.138 193.778 193.138 193.778C193.138 193.778 185.232 173.158 183.146 161.435C182.491 157.244 180.508 153.381 177.493 150.424C174.477 147.467 170.594 145.577 166.424 145.037C161.087 144.339 138.556 144.571 130.651 146.211C122.745 147.851 121.373 159.562 120.67 166.598C119.967 173.634 115.564 199.838 119.275 207.594C122.987 215.35 135.998 212.27 135.998 212.27V215.084H181.521L180.423 193.589C180.423 193.589 184.727 205.002 191.403 205.467C198.079 205.932 213.231 194.697 213.231 194.697L209.608 189.346ZM129.454 201.367C129.454 201.367 129.959 187.983 130.859 184.127L132.232 191.273L134.164 201.367H129.454Z" fill="#C53F3F"/>
<path d="M158.408 198.331L165.567 189.589L175.614 188.038L177.151 197.046L169.465 199.883C169.465 199.883 165.765 204.381 158.375 203.605L158.408 198.331Z" fill="#FF8B7B"/>
<path d="M209.608 189.345L213.33 182.453L222.411 178.598L225.847 187.982L218.326 190.941C218.326 190.941 216.361 195.306 213.33 194.741L209.608 189.345Z" fill="#FF8B7B"/>
<path d="M158.562 136.639C158.513 137.436 158.513 138.235 158.562 139.032C158.672 140.55 158.387 143.331 161.34 144.793C159.814 148.117 156.136 156.45 153.907 159.275C150.514 156.472 142.542 145.159 142.542 145.159C142.542 145.159 148.142 139.032 144.124 127.487C144.124 127.487 138.48 123.32 139.611 121.027C140.906 118.357 144.585 119.797 145.364 120.927C144.541 119.708 140.709 106.335 145.364 101.415C148.263 98.3461 151.162 98.3129 156.564 98.0913H157.014C160.473 97.9694 163.042 98.0913 163.042 98.0913C164.216 99.3677 165.251 100.768 166.127 102.268C168.577 106.304 170.08 110.852 170.519 115.564C171.541 126.545 169.399 135.442 158.562 136.639Z" fill="#FF8B7B"/>
<path d="M161.549 122.987C161.549 122.987 156.63 124.671 154.84 120.904" stroke="#263238" stroke-width="0.5" stroke-linecap="round" stroke-linejoin="round"/>
<path d="M155.609 107.144C154.786 107.119 153.973 107.328 153.262 107.748C152.552 108.167 151.972 108.779 151.59 109.515" stroke="#263238" stroke-linecap="round" stroke-linejoin="round"/>
<path d="M168.125 106.002C167.727 105.562 167.244 105.207 166.706 104.96C166.169 104.712 165.587 104.577 164.996 104.562" stroke="#263238" stroke-linecap="round" stroke-linejoin="round"/>
<path d="M163.602 120.949L162.636 112.65L167.478 118.922C167.478 118.922 167.006 121.082 163.602 120.949Z" fill="#FF5652"/>
<path d="M155.653 112.717C155.707 113.559 156.202 114.213 156.751 114.179C157.3 114.146 157.684 113.426 157.618 112.573C157.552 111.72 157.08 111.077 156.52 111.121C155.96 111.166 155.587 111.908 155.653 112.717Z" fill="#263238"/>
<path d="M165.227 111.331C165.293 112.184 165.776 112.838 166.325 112.794C166.874 112.749 167.258 112.04 167.192 111.187C167.127 110.334 166.643 109.691 166.094 109.736C165.545 109.78 165.172 110.489 165.227 111.331Z" fill="#263238"/>
<path d="M142.026 114.788C142.026 114.788 136.416 107.199 141.049 102.279C143.948 99.2098 151.744 97.2044 157.135 96.9717C157.014 98.257 157.135 109.514 142.026 114.788Z" fill="#263238"/>
<path d="M166.215 102.301C162.768 101.949 159.533 100.457 157.014 98.0572L156.585 97.6029C158.748 97.5127 160.914 97.6688 163.042 98.0683C164.216 99.3447 165.25 100.745 166.127 102.245L166.215 102.301Z" fill="#263238"/>
<path opacity="0.2" d="M158.595 139.032C156.209 138.299 154.092 136.869 152.512 134.921C154.403 135.873 156.456 136.456 158.562 136.638C158.524 137.436 158.535 138.235 158.595 139.032Z" fill="black"/>
<path opacity="0.2" d="M132.243 191.274L130.871 184.127V173.867C130.871 173.867 132.452 184.692 132.243 191.274Z" fill="black"/>
<path d="M334.032 158.081L253.996 162.653L257.483 224.812L337.519 220.24L334.032 158.081Z" fill="#C53F3F"/>
<path opacity="0.3" d="M334.032 158.081L253.996 162.653L257.483 224.812L337.519 220.24L334.032 158.081Z" fill="black"/>
<path d="M304.943 159.748L224.906 164.32L228.393 226.479L308.43 221.907L304.943 159.748Z" fill="#C53F3F"/>
<path opacity="0.3" d="M304.943 159.748L224.906 164.32L228.393 226.479L308.43 221.907L304.943 159.748Z" fill="white"/>
<path opacity="0.3" d="M314.844 165.12L297.759 166.154L298.105 171.971L315.19 170.937L314.844 165.12Z" fill="black"/>
<path opacity="0.5" d="M246.961 170.839L229.903 171.813L230.431 181.216L247.488 180.242L246.961 170.839Z" fill="white"/>
<path opacity="0.3" d="M252.919 195.359L226.74 196.854L227.152 204.189L253.33 202.693L252.919 195.359Z" fill="black"/>
<path d="M357.158 106.845L352.766 112.496C353.983 113.353 355.381 113.91 356.85 114.124L357.158 106.845Z" fill="#A02724"/>
<path d="M432.963 453.405L420.205 452.673L417.613 441.693L416.197 435.677L415.67 433.461L425.486 432.785L426.189 432.729L428.275 439.1L432.963 453.405Z" fill="#B55B52"/>
<path d="M359.595 455.211C359.837 456.086 347.748 454.524 347.748 454.524L347.32 444.275L346.99 436.364V435.932H347.089L359.365 437.162C359.365 437.162 359.365 440.486 359.365 444.264C359.387 449.117 359.453 454.734 359.595 455.211Z" fill="#B55B52"/>
<path d="M385.2 136.561C385.2 136.561 367.962 141.27 369.235 137.858C369.877 135.792 370.134 133.625 369.993 131.465C369.993 130.046 369.817 129.038 369.817 129.038C363.581 129.404 359.386 124.85 357.52 119.243C355.115 112.052 355.993 104.019 358.914 97.1942C359.145 96.6402 359.803 94.2912 360.385 94.0032L367.149 90.8564C367.149 90.8564 373.737 95.2109 377.163 97.9144C380.589 100.618 383.345 113.183 383.345 122.955C383.345 132.728 385.2 136.561 385.2 136.561Z" fill="#B55B52"/>
<path d="M356.641 104.772C356.337 104.856 356.066 105.036 355.869 105.285C355.672 105.534 355.558 105.839 355.543 106.157C355.498 106.453 355.543 106.756 355.673 107.025C355.802 107.294 356.01 107.517 356.268 107.664L356.641 104.772Z" fill="#263238"/>
<path d="M356.642 99.1445C357.359 99.1283 358.065 99.3247 358.673 99.7096" stroke="#263238" stroke-linecap="round" stroke-linejoin="round"/>
<path d="M362.636 117.127C362.636 117.127 367.643 125.016 375.615 126.822C383.586 128.628 386.101 125.836 387.166 121.282C388.089 116.988 390.132 113.021 393.084 109.792C395.84 106.922 394.182 99.1327 390.679 92.7285C390.679 92.7285 394.434 89.5485 388.384 86.4905C382.334 83.4324 380.106 88.5181 374.857 85.5487C369.609 82.5792 376.614 81.5931 371.662 90.856C366.71 100.119 363.976 93.3822 363.24 97.504C362.505 101.626 358.673 108.783 362.636 117.127Z" fill="#263238"/>
<path d="M363.24 99.4213C362.746 99.2551 346.869 93.4603 346.715 90.8343C346.562 88.2084 359.024 92.9839 359.496 93.1722L362.713 98.3023L363.24 99.4213Z" fill="#C53F3F"/>
<path d="M395.28 105.77C395.127 106.246 394.182 109.404 393.776 109.404L392.447 109.327C391.21 109.223 389.981 109.079 388.758 108.894C387.408 108.684 386.079 108.418 384.772 108.108H384.717C383.389 107.786 382.082 107.432 380.809 107C377.682 106.047 374.614 104.911 371.618 103.598C369.927 102.856 368.434 102.136 367.226 101.515C364.756 100.274 363.285 99.3989 363.285 99.3989L363.065 99.0333L362.165 97.604L360.243 94.5348L359.584 93.5044V93.4268C359.553 93.3333 359.553 93.2322 359.584 93.1387C359.65 91.9642 362.033 88.7067 362.461 88.1527C364.225 85.7742 366.471 83.8024 369.049 82.369C372.585 80.3967 376.57 81.261 380.326 81.9258C381.568 82.186 382.779 82.5798 383.938 83.1002L384.674 83.4216L384.816 83.488C384.948 83.5656 385.091 83.621 385.223 83.6875L385.464 83.8094C388.254 85.128 390.793 86.932 392.963 89.1388C397.904 94.7342 395.895 103.964 395.28 105.77Z" fill="#C53F3F"/>
<path d="M389.911 142.511C389.911 142.511 389.12 136.971 387.397 135.863C385.673 134.755 368.544 134.921 365.876 136.816C363.208 138.71 363.68 144.904 363.68 144.904L389.911 142.511Z" fill="#C53F3F"/>
<path d="M359.507 108.374C359.507 108.374 362.428 104.562 365.557 106.922C368.687 109.282 366.205 114.878 362.527 116.451C362.527 116.451 357.773 118.013 357.158 113.127C356.543 108.241 359.507 108.374 359.507 108.374Z" fill="#B55B52"/>
<path d="M347.792 241.023C347.792 241.023 341.259 304.102 339.436 333.109C337.613 362.117 344.311 436.297 344.311 436.297H360.199C360.199 436.297 362.022 362.604 364.767 340.5C367.512 318.395 376.625 288.424 376.625 288.424C376.625 288.424 382.115 335.857 387.605 355.203C393.095 374.549 410.927 433.649 410.927 433.649L429.219 430.104C429.219 430.104 407.259 354.283 407.259 330.794C407.259 307.304 407.468 259.882 402 241.046L347.792 241.023Z" fill="#C53F3F"/>
<path opacity="0.3" d="M429.186 430.126L410.905 433.682C410.905 433.682 393.084 374.582 387.594 355.236C384.575 344.599 381.566 325.442 379.469 310.362C377.712 298.052 376.614 288.457 376.614 288.457C376.614 288.457 367.49 318.373 364.745 340.533C362 362.693 360.188 436.331 360.188 436.331H344.311C344.311 436.331 337.613 362.161 339.436 333.154C341.259 304.146 347.792 241.057 347.792 241.057H401.945C407.435 259.893 407.215 307.37 407.215 330.805C407.215 354.239 429.186 430.126 429.186 430.126Z" fill="black"/>
<path opacity="0.3" d="M379.458 310.362C377.712 298.052 376.614 288.457 376.614 288.457L377.712 271.238L379.458 310.362Z" fill="black"/>
<path d="M342.587 433.217H361.626L360.693 441.128H343.334L342.587 433.217Z" fill="#263238"/>
<path d="M408.61 432.065L429.197 424.342L431.8 435.577L411.706 441.128L408.61 432.065Z" fill="#263238"/>
<path opacity="0.2" d="M425.486 432.785L416.197 435.677L417.613 441.693L428.275 439.101L425.486 432.785Z" fill="black"/>
<path opacity="0.2" d="M359.364 444.309H347.286L346.957 436.398L347.034 435.977L359.31 437.206C359.31 437.206 359.342 440.486 359.364 444.309Z" fill="black"/>
<path d="M341.478 459.144C341.555 459.355 333.88 454.845 335.988 452.74C338.096 450.635 341.478 459.144 341.478 459.144Z" stroke="#C53F3F" stroke-miterlimit="10"/>
<path d="M342.576 458.823C342.521 459.045 338.294 451.167 341.171 450.469C344.048 449.771 342.576 458.823 342.576 458.823Z" stroke="#C53F3F" stroke-miterlimit="10"/>
<path d="M418.437 454.358C418.437 454.358 415.922 446.192 413.485 447.532C411.047 448.873 418.437 454.358 418.437 454.358Z" stroke="#C53F3F" stroke-miterlimit="10"/>
<path d="M417.756 455.067C417.756 455.067 412.079 448.74 410.421 450.956C408.763 453.172 417.756 455.067 417.756 455.067Z" stroke="#C53F3F" stroke-miterlimit="10"/>
<path d="M433.436 452.651H419.798C419.798 452.651 411.915 457.438 408.456 457.881C404.997 458.324 402.966 458.535 403.065 461.039C403.164 463.543 405.261 463.765 412.343 463.654C419.425 463.543 433.48 464.418 435.006 463C436.532 461.582 435.566 458.912 433.436 452.651Z" fill="#263238"/>
<path d="M359.595 454.357L346.419 454.457C346.419 454.457 338.535 459.244 335.087 459.687C331.64 460.13 329.598 460.341 329.685 462.845C329.773 465.349 331.881 465.57 338.974 465.46C346.067 465.349 358.574 466.379 360.1 464.961C361.626 463.543 360.781 461.216 359.595 454.357Z" fill="#263238"/>
<path opacity="0.3" d="M359.496 93.1716C359.837 94.9334 360.188 96.2851 363.076 99.3543C359.409 97.9804 346.847 93.083 346.716 90.8338C346.584 88.5845 356.334 91.9639 359.496 93.1716Z" fill="black"/>
<path opacity="0.3" d="M359.496 93.4492C359.465 93.3557 359.465 93.2546 359.496 93.1611C359.496 93.1611 359.496 93.283 359.496 93.5157V93.4492Z" fill="black"/>
<path opacity="0.3" d="M363.24 99.4212L362.9 99.2882C362.917 99.2418 362.939 99.1973 362.966 99.1553L363.24 99.4212Z" fill="black"/>
<path d="M395.28 105.77C395.127 106.246 394.182 109.404 393.776 109.404L392.447 109.327C391.21 109.223 389.981 109.079 388.758 108.894C387.408 108.684 386.079 108.418 384.772 108.108H384.717C383.389 107.786 382.082 107.432 380.809 107C377.682 106.047 374.614 104.911 371.618 103.598C369.927 102.856 368.434 102.136 367.226 101.515C364.756 100.274 363.285 99.3989 363.285 99.3989L363.065 99.0333L362.165 97.604L360.243 94.5348L359.584 93.5044V93.4268C359.553 93.3333 359.553 93.2322 359.584 93.1387C359.65 91.9642 362.033 88.7067 362.461 88.1527C364.225 85.7742 366.471 83.8024 369.049 82.369C372.585 80.3967 376.57 81.261 380.326 81.9258C381.568 82.186 382.779 82.5798 383.938 83.1002L384.674 83.4216L384.816 83.488C384.948 83.5656 385.091 83.621 385.223 83.6875L385.464 83.8094C388.254 85.128 390.793 86.932 392.963 89.1388C397.904 94.7342 395.895 103.964 395.28 105.77Z" fill="#C53F3F"/>
<path opacity="0.2" d="M373.682 127.975C372.513 129.202 371.282 130.367 369.993 131.465C369.993 130.047 369.817 129.038 369.817 129.038C371.142 128.835 372.439 128.478 373.682 127.975Z" fill="black"/>
<path d="M347.792 241.644V184.892L337.525 180.671C337.525 180.671 339.491 150.389 354.105 145.614C368.72 140.838 394.731 138.833 401.89 145.614C406.414 149.924 407.018 156.838 407.183 162.766C407.534 174.843 404.405 186.654 403.713 198.665C403.164 208.437 402.834 218.21 402.615 227.994C402.615 228.747 402.329 241.644 402.307 241.644H347.792Z" fill="#263238"/>
<path d="M353.413 186.831C353.413 186.831 345.815 212.16 338.305 213.744C330.794 215.329 305.145 201.202 305.145 201.202H293.693L292.068 191.041C292.068 191.041 302.729 187.052 309.834 191.828C309.834 191.828 326.424 199.13 331.947 201.257L339.952 181.712L353.413 186.831Z" fill="#B55B52"/>
</g>
<defs>
<clipPath id="clip0_46_9145">
<rect width="549" height="554" fill="white"/>
</clipPath>
</defs>
</svg>
