<svg width="767" height="767" viewBox="0 0 767 767" fill="none" xmlns="http://www.w3.org/2000/svg">
<path d="M767 586.602H0V586.985H767V586.602Z" fill="#EBEBEB"/>
<path d="M683.029 604.166H604.948V604.549H683.029V604.166Z" fill="#EBEBEB"/>
<path d="M152.894 599.625H80.4736V600.009H152.894V599.625Z" fill="#EBEBEB"/>
<path d="M610.532 597.048H581.095V597.432H610.532V597.048Z" fill="#EBEBEB"/>
<path d="M508.092 607.219H486.493V607.602H508.092V607.219Z" fill="#EBEBEB"/>
<path d="M472.825 607.219H418.46V607.602H472.825V607.219Z" fill="#EBEBEB"/>
<path d="M386.89 600.745H299.468V601.129H386.89V600.745Z" fill="#EBEBEB"/>
<path d="M363.558 518.185H67.3734C65.0503 518.185 62.8224 517.262 61.1798 515.62C59.5371 513.977 58.6143 511.749 58.6143 509.426V93.0524C58.6345 90.7427 59.5662 88.5344 61.2067 86.9083C62.8472 85.2822 65.0636 84.3699 67.3734 84.37H363.558C365.881 84.37 368.109 85.2928 369.752 86.9355C371.394 88.5781 372.317 90.8061 372.317 93.1291V509.426C372.317 511.749 371.394 513.977 369.752 515.62C368.109 517.262 365.881 518.185 363.558 518.185ZM67.3734 84.6768C65.1533 84.6809 63.0253 85.5646 61.4554 87.1344C59.8856 88.7043 59.0018 90.8323 58.9978 93.0524V509.426C59.0018 511.646 59.8856 513.774 61.4554 515.344C63.0253 516.914 65.1533 517.798 67.3734 517.802H363.558C365.778 517.798 367.906 516.914 369.476 515.344C371.046 513.774 371.93 511.646 371.934 509.426V93.0524C371.93 90.8323 371.046 88.7043 369.476 87.1344C367.906 85.5646 365.778 84.6809 363.558 84.6768H67.3734Z" fill="#EBEBEB"/>
<path d="M695.378 518.185H399.162C396.841 518.181 394.615 517.257 392.973 515.615C391.332 513.973 390.407 511.748 390.403 509.426V93.0524C390.428 90.7439 391.361 88.538 393 86.9127C394.64 85.2875 396.854 84.3739 399.162 84.37H695.378C697.682 84.378 699.891 85.2938 701.525 86.9191C703.159 88.5443 704.086 90.748 704.106 93.0524V509.426C704.106 511.744 703.188 513.967 701.552 515.609C699.916 517.251 697.696 518.177 695.378 518.185ZM399.162 84.6768C396.942 84.6809 394.814 85.5646 393.244 87.1344C391.675 88.7043 390.791 90.8323 390.787 93.0524V509.426C390.791 511.646 391.675 513.774 393.244 515.344C394.814 516.914 396.942 517.798 399.162 517.802H695.378C697.598 517.798 699.726 516.914 701.296 515.344C702.866 513.774 703.749 511.646 703.753 509.426V93.0524C703.749 90.8323 702.866 88.7043 701.296 87.1344C699.726 85.5646 697.598 84.6809 695.378 84.6768H399.162Z" fill="#EBEBEB"/>
<path d="M275.384 148.461H80.4736V586.602H275.384V148.461Z" fill="#F0F0F0"/>
<path d="M275.384 148.461H84.585V586.602H275.384V148.461Z" fill="#F5F5F5"/>
<path d="M263.756 576.661V158.401H96.2124L96.2124 576.661H263.756Z" fill="#EBEBEB"/>
<path d="M234.211 214.008V231.818H125.757V214.008C125.757 205.737 129.043 197.805 134.891 191.956C140.74 186.108 148.672 182.822 156.943 182.822H203.04C211.308 182.826 219.237 186.114 225.082 191.962C230.927 197.81 234.211 205.74 234.211 214.008Z" fill="#FAFAFA"/>
<path d="M247.296 534.783V466.612C247.296 457.844 240.188 450.735 231.419 450.735H128.564C119.796 450.735 112.687 457.844 112.687 466.612V534.783C112.687 543.552 119.796 550.66 128.564 550.66H231.419C240.188 550.66 247.296 543.552 247.296 534.783Z" fill="#F0F0F0"/>
<path d="M128.549 431.192H156.177C164.945 431.192 172.054 424.084 172.054 415.315L172.054 273.589C172.054 264.82 164.945 257.712 156.177 257.712H128.549C119.781 257.712 112.673 264.82 112.673 273.589L112.673 415.315C112.673 424.084 119.781 431.192 128.549 431.192Z" fill="#F0F0F0"/>
<path d="M203.792 431.192H231.419C240.188 431.192 247.296 424.084 247.296 415.315L247.296 273.589C247.296 264.82 240.188 257.712 231.419 257.712H203.792C195.023 257.712 187.915 264.82 187.915 273.589L187.915 415.315C187.915 424.084 195.023 431.192 203.792 431.192Z" fill="#F0F0F0"/>
<path d="M234.211 348.724C234.211 350.693 234.795 352.618 235.889 354.255C236.983 355.892 238.538 357.169 240.357 357.922C242.176 358.676 244.178 358.873 246.109 358.489C248.04 358.104 249.814 357.156 251.206 355.764C252.599 354.372 253.547 352.598 253.931 350.666C254.315 348.735 254.118 346.734 253.364 344.914C252.611 343.095 251.335 341.54 249.698 340.446C248.06 339.352 246.136 338.769 244.167 338.769C242.859 338.769 241.565 339.026 240.357 339.526C239.149 340.027 238.051 340.76 237.127 341.684C236.202 342.609 235.469 343.706 234.969 344.914C234.468 346.122 234.211 347.417 234.211 348.724Z" fill="white"/>
<path d="M263.74 576.661V158.401H260.718V576.661H263.74Z" fill="#F0F0F0"/>
<path d="M652.993 400.619H610.67V586.602H652.993V400.619Z" fill="#E6E6E6"/>
<path d="M637.192 586.602H652.977V560.922H620.641L637.192 586.602Z" fill="#EBEBEB"/>
<path d="M575.296 400.619H532.973V586.602H575.296V400.619Z" fill="#E6E6E6"/>
<path d="M652.978 400.619H561.506V577.766H652.978V400.619Z" fill="#EBEBEB"/>
<path d="M577.306 586.602H561.506V560.922H593.858L577.306 586.602Z" fill="#EBEBEB"/>
<path d="M640.736 466.627H573.762V510.96H640.736V466.627Z" fill="#FAFAFA"/>
<path d="M640.736 520.425H573.762V564.757H640.736V520.425Z" fill="#FAFAFA"/>
<path d="M597.401 462.777H617.083V465.385C617.083 466.968 616.454 468.485 615.335 469.604C614.216 470.723 612.698 471.352 611.115 471.352H603.445C601.863 471.352 600.345 470.723 599.226 469.604C598.107 468.485 597.478 466.968 597.478 465.385V462.777H597.401Z" fill="#EBEBEB"/>
<path d="M640.736 412.815H573.762V457.147H640.736V412.815Z" fill="#FAFAFA"/>
<path d="M597.401 408.98H617.083V411.588C617.083 413.17 616.454 414.688 615.335 415.807C614.216 416.926 612.698 417.555 611.115 417.555H603.445C601.863 417.555 600.345 416.926 599.226 415.807C598.107 414.688 597.478 413.17 597.478 411.588V408.98H597.401Z" fill="#EBEBEB"/>
<path d="M597.401 516.59H617.083V519.198C617.083 520.78 616.454 522.298 615.335 523.417C614.216 524.536 612.698 525.165 611.115 525.165H603.445C601.863 525.165 600.345 524.536 599.226 523.417C598.107 522.298 597.478 520.78 597.478 519.198V516.59H597.401Z" fill="#EBEBEB"/>
<path d="M369.633 586.602H312.123L313.151 375.201L369.633 394.714V586.602Z" fill="#EBEBEB"/>
<path d="M485.879 586.602H319.946L312.123 362.024H478.04L485.879 586.602Z" fill="#E0E0E0"/>
<path d="M497.814 586.602H325.147L317.323 362.024H489.975L497.814 586.602Z" fill="#F5F5F5"/>
<path d="M341.929 560.293L335.946 389.774C335.914 388.472 336.141 387.176 336.614 385.963C337.087 384.749 337.796 383.642 338.702 382.705C339.607 381.769 340.689 381.022 341.886 380.508C343.083 379.994 344.37 379.723 345.672 379.711H464.219C466.538 379.69 468.773 380.58 470.442 382.189C472.112 383.798 473.083 385.999 473.147 388.317L479.099 558.851C479.13 560.154 478.901 561.449 478.426 562.661C477.951 563.874 477.24 564.98 476.333 565.916C475.427 566.851 474.343 567.596 473.146 568.108C471.948 568.62 470.661 568.889 469.358 568.899H350.857C348.538 568.92 346.304 568.03 344.634 566.421C342.965 564.812 341.993 562.611 341.929 560.293Z" fill="white"/>
<path d="M640.46 126.985H338.615V282.701H640.46V126.985Z" fill="#E6E6E6"/>
<path d="M647.716 126.985H342.005V282.701H647.716V126.985Z" fill="#F0F0F0"/>
<path d="M640.46 282.716H338.615V286.275H640.46V282.716Z" fill="#E6E6E6"/>
<path d="M659.804 282.716H354.093V286.275H659.804V282.716Z" fill="#F0F0F0"/>
<path d="M637.546 272.546V137.14L352.161 137.14V272.546H637.546Z" fill="#FAFAFA"/>
<path d="M402.077 272.561L430.349 137.155H474.467L446.195 272.561H402.077Z" fill="white"/>
<path d="M356.869 262.437C356.678 262.437 356.495 262.361 356.36 262.226C356.224 262.09 356.148 261.907 356.148 261.716V143.751C356.148 143.56 356.224 143.377 356.36 143.241C356.495 143.106 356.678 143.03 356.869 143.03C357.061 143.03 357.244 143.106 357.379 143.241C357.514 143.377 357.59 143.56 357.59 143.751V261.716C357.59 261.907 357.514 262.09 357.379 262.226C357.244 262.361 357.061 262.437 356.869 262.437Z" fill="#F0F0F0"/>
<path d="M455.675 272.561L483.946 137.155H501.143L472.871 272.561H455.675Z" fill="white"/>
<path d="M637.562 272.546V137.14H636.273V272.546H637.562Z" fill="#E6E6E6"/>
<path opacity="0.6" d="M650.109 152.464H348.279L347.344 141.097H649.174L650.109 152.464Z" fill="#EBEBEB"/>
<path opacity="0.6" d="M650.109 158.876H348.279L347.344 147.509H649.174L650.109 158.876Z" fill="#EBEBEB"/>
<path opacity="0.6" d="M650.109 165.288H348.279L347.344 153.922H649.174L650.109 165.288Z" fill="#EBEBEB"/>
<path opacity="0.6" d="M650.109 171.701H348.279L347.344 160.334H649.174L650.109 171.701Z" fill="#EBEBEB"/>
<path opacity="0.6" d="M650.109 178.113H348.279L347.344 166.746H649.174L650.109 178.113Z" fill="#EBEBEB"/>
<path opacity="0.6" d="M650.109 184.525H348.279L347.344 173.158H649.174L650.109 184.525Z" fill="#EBEBEB"/>
<path d="M383.5 655.877C547.764 655.877 680.927 648.102 680.927 638.512C680.927 628.922 547.764 621.147 383.5 621.147C219.235 621.147 86.0723 628.922 86.0723 638.512C86.0723 648.102 219.235 655.877 383.5 655.877Z" fill="#F5F5F5"/>
<path d="M306.279 204.022C301.324 193.621 290.31 197.088 291.23 188.222C292.151 179.355 283.284 167.022 269.754 173.818C256.224 180.613 263.725 196.674 263.725 196.674C263.725 196.674 256.347 224.67 268.895 233.49C278.897 240.47 300.526 234.349 297.243 224.47C293.961 214.591 311.218 214.423 306.279 204.022Z" fill="#263238"/>
<path d="M298.041 232.186C297.964 232.185 297.89 232.161 297.827 232.118C297.764 232.074 297.716 232.012 297.688 231.941C294.129 222.491 298.946 217.951 303.195 213.947C306.555 210.787 309.454 208.056 307.92 203.439C306.125 198.07 302.321 196.705 298.977 195.493C295.633 194.281 292.703 193.223 292.979 188.544C293.034 185.896 292.419 183.276 291.191 180.93C289.963 178.583 288.161 176.585 285.953 175.121C282.962 173.235 278.007 171.762 271.38 175.444C271.291 175.492 271.185 175.504 271.087 175.475C270.99 175.446 270.907 175.38 270.858 175.29C270.81 175.201 270.798 175.095 270.827 174.998C270.856 174.9 270.922 174.817 271.012 174.769C276.442 171.701 281.888 171.701 286.352 174.477C288.687 176.001 290.591 178.1 291.883 180.571C293.175 183.042 293.811 185.803 293.73 188.59C293.485 192.701 296.016 193.606 299.222 194.726C302.428 195.846 306.708 197.426 308.626 203.148C310.328 208.225 307.092 211.262 303.717 214.469C299.437 218.488 295.019 222.66 298.394 231.619C298.429 231.716 298.424 231.824 298.381 231.918C298.339 232.013 298.26 232.087 298.164 232.125L298.041 232.186Z" fill="#263238"/>
<path d="M235.423 276.826C234.993 277.593 234.733 278.022 234.38 278.574L233.383 280.108C232.708 281.106 232.002 282.057 231.281 283.008C229.826 284.9 228.264 286.708 226.603 288.423C223.204 291.918 219.355 294.946 215.159 297.427C210.799 299.996 206.014 301.763 201.031 302.643C198.499 303.083 195.929 303.268 193.361 303.195C192.088 303.195 190.83 303.103 189.587 302.919L188.651 302.812H188.176L187.562 302.704C186.734 302.563 185.919 302.358 185.123 302.091C182.453 301.135 179.963 299.735 177.76 297.949C175.86 296.42 174.081 294.748 172.437 292.948C169.416 289.596 166.671 286.005 164.23 282.21C161.822 278.482 159.628 274.693 157.603 270.858C155.578 267.023 153.737 263.188 152.065 259.016L158.447 255.779C160.687 259.2 163.049 262.713 165.442 266.057C167.835 269.401 170.305 272.745 172.897 275.875C175.387 278.953 178.078 281.863 180.951 284.588C182.269 285.819 183.679 286.947 185.169 287.962C186.323 288.779 187.603 289.4 188.958 289.803C189.173 289.864 189.395 289.9 189.618 289.911H190.216H190.86C191.714 289.957 192.569 289.957 193.422 289.911C195.116 289.833 196.799 289.607 198.454 289.236C201.792 288.428 204.978 287.087 207.888 285.263C210.933 283.32 213.722 281 216.187 278.36C217.471 277.023 218.684 275.62 219.822 274.156C220.39 273.436 220.927 272.622 221.448 271.932L222.215 270.812L222.829 269.861L235.423 276.826Z" fill="#B65B52"/>
<path d="M235.776 261.117C222.875 261.746 219.699 270.045 219.699 270.045L234.594 292.749C234.594 292.749 240.96 285.907 242.679 278.252C244.458 270.275 244.535 260.688 235.776 261.117Z" fill="#263238"/>
<path d="M159.107 257.819L158.416 245.547L146.451 254.46C146.451 254.46 149.412 260.78 155.103 262.13L159.107 257.819Z" fill="#B55B52"/>
<path d="M150.976 235.853L143.275 244.105L146.451 254.46L158.416 245.547L150.976 235.853Z" fill="#B55B52"/>
<path d="M303.886 623.571L289.957 624.906L282.854 592.446L296.799 591.112L303.886 623.571Z" fill="#B55B52"/>
<path d="M431.944 581.539L421.175 590.912L396.539 569.498L407.308 560.109L431.944 581.539Z" fill="#B55B52"/>
<path d="M415.714 587.629L425.348 574.805C425.506 574.579 425.742 574.419 426.01 574.354C426.278 574.289 426.561 574.324 426.805 574.452L437.881 580.389C438.154 580.55 438.39 580.769 438.573 581.029C438.755 581.289 438.88 581.586 438.938 581.898C438.996 582.211 438.986 582.532 438.91 582.841C438.833 583.149 438.692 583.438 438.494 583.687C435.058 588.105 433.186 590.068 428.953 595.714C426.345 599.18 421.068 607.234 417.478 612.02C413.889 616.806 409.026 613.554 410.1 611.299C414.932 600.96 415.193 594.901 414.963 590.038C414.926 589.172 415.191 588.32 415.714 587.629Z" fill="#263238"/>
<path d="M288.208 620.702H304.959C305.26 620.702 305.552 620.802 305.791 620.985C306.029 621.168 306.201 621.424 306.278 621.715L309.929 634.969C310.018 635.282 310.032 635.611 309.971 635.93C309.909 636.25 309.774 636.55 309.576 636.808C309.378 637.066 309.122 637.274 308.829 637.415C308.536 637.557 308.214 637.628 307.889 637.622C302.029 637.515 299.176 637.178 291.797 637.178C287.272 637.178 275.552 637.653 269.294 637.653C263.035 637.653 261.884 631.517 264.431 630.904C275.782 628.388 282.333 624.921 285.907 621.607C286.535 621.031 287.355 620.708 288.208 620.702Z" fill="#263238"/>
<path opacity="0.2" d="M282.869 592.446L286.52 609.182H300.756L296.798 591.112L282.869 592.446Z" fill="black"/>
<path opacity="0.2" d="M407.308 560.125L396.539 569.513L409.241 580.542L420.009 571.154L407.308 560.125Z" fill="black"/>
<path d="M225.988 263.848C225.988 263.848 220.052 267.928 253.508 344.153L309.116 328.813C302.443 306.585 298.869 292.718 297.902 243.569C289.695 244.113 281.539 245.251 273.496 246.974C264.925 248.701 256.488 251.033 248.247 253.954C237.647 257.865 225.988 263.848 225.988 263.848Z" fill="#263238"/>
<path d="M263.848 219.362C264.308 227.876 266.501 243.108 273.558 246.974C273.558 246.974 279.126 272.622 258.77 298.639C237.294 279.771 248.308 253.954 248.308 253.954C256.822 249.352 254.889 242.679 251.698 236.85L263.848 219.362Z" fill="#B55B52"/>
<path d="M273.496 246.974C273.496 246.974 279.065 272.622 258.709 298.639C237.233 279.771 248.247 253.954 248.247 253.954C248.247 253.954 251.407 261.884 257.819 264.6C261.915 262.222 270.183 254.736 273.496 246.974Z" fill="#F5F5F5"/>
<path d="M259.491 263.464C259.491 263.464 270.935 259.307 279.433 262.375C280.185 257.773 281.259 248.078 277.654 245.501C276.185 245.547 274.761 246.022 273.558 246.867L259.491 263.464Z" fill="white"/>
<path d="M256.178 263.633C256.178 263.633 248.677 261.884 241.252 269.217C240.715 264.615 241.068 256.945 244.78 254.322C246.079 253.659 247.488 253.238 248.937 253.079C250.726 256.987 253.175 260.558 256.178 263.633Z" fill="white"/>
<path opacity="0.2" d="M262.467 221.233C263.566 226.096 263.618 231.137 262.62 236.021C261.915 239.396 258.249 241.866 254.168 243.308C253.682 241.01 252.833 238.804 251.652 236.773L262.467 221.233Z" fill="black"/>
<path d="M239.534 190.461C227.538 206.937 239.412 228.811 249.689 228.351C257.359 228.06 267.346 218.35 266.103 209.621C264.247 196.536 245.563 182.178 239.534 190.461Z" fill="#263238"/>
<path d="M275.736 209.36C272.883 223.166 271.963 229.042 263.94 235.316C251.867 244.75 235.638 238.614 234.334 224.348C233.168 211.508 238.046 191.121 252.389 187.255C255.509 186.36 258.809 186.294 261.963 187.064C265.116 187.833 268.015 189.412 270.372 191.644C272.729 193.876 274.464 196.683 275.405 199.79C276.345 202.897 276.46 206.196 275.736 209.36Z" fill="#B55B52"/>
<path d="M263.848 188.022C263.28 192.072 271.518 203.454 280.722 203.362C285.201 203.362 286.582 196.49 282.256 190.277C276.442 182.055 264.738 182.209 263.848 188.022Z" fill="#C53F3F"/>
<path d="M244.995 190.646C243.998 197.687 258.801 216.294 274.616 216.033C282.379 215.911 283.82 198.223 278.083 191.581C266.916 178.588 246.422 180.582 244.995 190.646Z" fill="#263238"/>
<path d="M270.121 212.029C265.289 213.011 268.097 219.546 271.027 222.86C274.769 220.313 277.761 210.48 270.121 212.029Z" fill="#263238"/>
<path d="M257.405 196.475C245.854 201.276 234.518 189.004 231.22 183.574C239.565 184.77 256.792 173.388 263.879 187.792C268.864 197.886 257.405 196.475 257.405 196.475Z" fill="#263238"/>
<path d="M254.828 195.631C246.974 202.473 234.687 195.968 230.606 192.563C237.54 191.244 248.125 177.729 257.62 187.041C264.293 193.652 254.828 195.631 254.828 195.631Z" fill="#263238"/>
<path d="M279.096 219.792C278.417 222.443 276.734 224.725 274.402 226.158C271.334 228.029 268.849 225.529 268.956 222.123C269.049 219.055 270.782 214.453 274.264 213.901C275.021 213.8 275.79 213.893 276.501 214.173C277.211 214.453 277.837 214.91 278.322 215.5C278.806 216.09 279.131 216.794 279.266 217.545C279.402 218.296 279.343 219.069 279.096 219.792Z" fill="#B55B52"/>
<path d="M253.509 344.076C253.509 344.076 247.757 455.69 255.733 497.829C264.032 541.671 279.679 604.319 279.679 604.319L306.156 603.031C306.156 603.031 296.262 523.554 293.884 489.668C290.663 442.973 294.191 332.801 294.191 332.801L253.509 344.076Z" fill="#C53F3F"/>
<path opacity="0.4" d="M253.509 344.076C253.509 344.076 247.757 455.69 255.733 497.829C264.032 541.671 279.679 604.319 279.679 604.319L306.156 603.031C306.156 603.031 296.262 523.554 293.884 489.668C290.663 442.973 294.191 332.801 294.191 332.801L253.509 344.076Z" fill="black"/>
<path opacity="0.2" d="M293.193 374.802C289.312 364.463 285.83 358.772 285.14 369.065C283.698 390.848 286.935 415.745 292.58 428.093C292.626 409.578 292.902 390.787 293.193 374.802Z" fill="black"/>
<path d="M308.012 604.319L277.838 605.777L274.264 594.747L306.969 592.185L308.012 604.319Z" fill="#C53F3F"/>
<path d="M268.189 340.011C268.189 340.011 299.989 431.192 321.68 481.538C339.198 522.204 403.274 579.024 403.274 579.024L418.414 566.46C418.414 566.46 372.64 501.695 360.521 474.113C321.711 385.816 333.231 348.417 309.117 328.69L268.189 340.011Z" fill="#C53F3F"/>
<path opacity="0.4" d="M268.189 340.011C268.189 340.011 299.989 431.192 321.68 481.538C339.198 522.204 403.274 579.024 403.274 579.024L418.414 566.46C418.414 566.46 372.64 501.695 360.521 474.113C321.711 385.816 333.231 348.417 309.117 328.69L268.189 340.011Z" fill="black"/>
<path d="M419.641 566.322L402.691 580.987L394.392 574.867L414.349 558.177L419.641 566.322Z" fill="#C53F3F"/>
<path d="M309.117 325.208L312.89 329.473C313.182 329.795 312.89 330.316 312.185 330.485L253.893 346.623C253.402 346.761 252.926 346.623 252.803 346.331L251.039 341.53C250.917 341.192 251.285 340.778 251.837 340.625L308.15 325.055C308.311 324.996 308.484 324.98 308.653 325.007C308.822 325.034 308.982 325.103 309.117 325.208Z" fill="#C53F3F"/>
<path d="M303.164 333.568L304.698 333.139C305.005 333.139 305.189 332.847 305.112 332.663L302.765 326.435C302.765 326.251 302.397 326.174 302.105 326.251L300.571 326.665C300.28 326.757 300.08 326.972 300.157 327.156L302.504 333.384C302.55 333.568 302.857 333.645 303.164 333.568Z" fill="#C53F3F"/>
<path opacity="0.4" d="M303.164 333.568L304.698 333.139C305.005 333.139 305.189 332.847 305.112 332.663L302.765 326.435C302.765 326.251 302.397 326.174 302.105 326.251L300.571 326.665C300.28 326.757 300.08 326.972 300.157 327.156L302.504 333.384C302.55 333.568 302.857 333.645 303.164 333.568Z" fill="black"/>
<path d="M258.249 345.994L259.783 345.564C260.09 345.487 260.274 345.273 260.197 345.089L257.85 338.861C257.85 338.677 257.482 338.6 257.19 338.677L255.656 339.091C255.365 339.183 255.165 339.398 255.242 339.582L257.589 345.81C257.712 345.994 257.942 346.07 258.249 345.994Z" fill="#C53F3F"/>
<path opacity="0.4" d="M258.249 345.994L259.783 345.564C260.09 345.487 260.274 345.273 260.197 345.089L257.85 338.861C257.85 338.677 257.482 338.6 257.19 338.677L255.656 339.091C255.365 339.183 255.165 339.398 255.242 339.582L257.589 345.81C257.712 345.994 257.942 346.07 258.249 345.994Z" fill="black"/>
<path d="M280.721 339.781L282.255 339.351C282.562 339.275 282.746 339.06 282.67 338.876L280.323 332.648C280.323 332.464 279.954 332.387 279.663 332.464L278.129 332.878C277.837 332.97 277.638 333.185 277.715 333.369L280.062 339.597C280.092 339.781 280.399 339.858 280.721 339.781Z" fill="#C53F3F"/>
<path opacity="0.4" d="M280.721 339.781L282.255 339.351C282.562 339.275 282.746 339.06 282.67 338.876L280.323 332.648C280.323 332.464 279.954 332.387 279.663 332.464L278.129 332.878C277.837 332.97 277.638 333.185 277.715 333.369L280.062 339.597C280.092 339.781 280.399 339.858 280.721 339.781Z" fill="black"/>
<path d="M254.186 210.738C254.368 209.608 253.919 208.597 253.183 208.478C252.447 208.359 251.703 209.178 251.52 210.307C251.338 211.436 251.787 212.448 252.523 212.567C253.259 212.686 254.004 211.867 254.186 210.738Z" fill="#263238"/>
<path d="M241.42 209.13C241.267 210.25 240.531 211.094 239.794 211.017C239.058 210.94 238.598 209.928 238.751 208.793C238.905 207.658 239.656 206.829 240.393 206.921C241.129 207.013 241.589 207.995 241.42 209.13Z" fill="#263238"/>
<path d="M240.7 207.09L238.107 205.986C238.107 205.986 239.197 208.194 240.7 207.09Z" fill="#263238"/>
<path d="M244.519 211.477C243.137 213.936 241.435 216.2 239.457 218.212C239.978 218.692 240.599 219.053 241.275 219.267C241.951 219.482 242.665 219.546 243.369 219.454L244.519 211.477Z" fill="#A02724"/>
<path d="M246.559 224.348C246.502 224.318 246.455 224.271 246.428 224.213C246.4 224.154 246.392 224.088 246.406 224.025C246.412 223.981 246.426 223.938 246.449 223.899C246.471 223.86 246.501 223.826 246.537 223.799C246.572 223.772 246.613 223.752 246.657 223.741C246.7 223.73 246.745 223.727 246.79 223.734C248.201 223.928 249.637 223.792 250.987 223.337C252.336 222.882 253.562 222.12 254.567 221.111C254.63 221.048 254.716 221.013 254.805 221.013C254.894 221.013 254.979 221.048 255.042 221.111C255.073 221.141 255.097 221.177 255.114 221.216C255.131 221.256 255.139 221.298 255.139 221.341C255.139 221.384 255.131 221.426 255.114 221.466C255.097 221.505 255.073 221.541 255.042 221.571C253.969 222.676 252.649 223.511 251.19 224.007C249.732 224.503 248.176 224.646 246.652 224.424C246.612 224.411 246.58 224.383 246.559 224.348Z" fill="#263238"/>
<path d="M259.537 205.418C259.439 205.366 259.359 205.286 259.307 205.188C258.923 204.447 258.365 203.811 257.681 203.332C256.997 202.854 256.208 202.549 255.38 202.442C255.293 202.438 255.207 202.417 255.128 202.379C255.049 202.341 254.979 202.287 254.922 202.221C254.864 202.155 254.821 202.078 254.794 201.995C254.768 201.911 254.758 201.823 254.767 201.736C254.782 201.559 254.866 201.394 255.001 201.277C255.135 201.159 255.309 201.099 255.488 201.107C256.533 201.227 257.533 201.6 258.402 202.193C259.27 202.787 259.981 203.583 260.473 204.513C260.544 204.643 260.571 204.792 260.548 204.938C260.526 205.085 260.457 205.219 260.35 205.322C260.244 205.425 260.107 205.49 259.96 205.507C259.813 205.525 259.665 205.493 259.537 205.418Z" fill="#263238"/>
<path d="M236.236 202.488H236.144C236.019 202.362 235.948 202.191 235.948 202.012C235.948 201.834 236.019 201.663 236.144 201.537C236.829 200.715 237.7 200.067 238.683 199.645C239.667 199.224 240.737 199.042 241.805 199.113C241.891 199.124 241.974 199.153 242.05 199.197C242.125 199.241 242.19 199.3 242.242 199.371C242.293 199.441 242.33 199.521 242.35 199.606C242.37 199.691 242.372 199.779 242.357 199.865C242.33 200.043 242.235 200.203 242.092 200.312C241.949 200.421 241.769 200.47 241.59 200.448C240.746 200.402 239.904 200.556 239.131 200.897C238.358 201.238 237.676 201.757 237.141 202.411C237.025 202.531 236.87 202.605 236.703 202.619C236.537 202.634 236.371 202.587 236.236 202.488Z" fill="#263238"/>
<path d="M302.827 251.039C305.542 254.214 308.61 257.62 311.662 260.78C314.715 263.94 317.798 267.1 321.112 270.061C327.407 275.978 334.319 281.203 341.729 285.646C343.493 286.663 345.311 287.585 347.174 288.407C348.706 289.09 350.328 289.545 351.991 289.757C355.666 290.135 359.378 289.679 362.852 288.423C366.773 287.061 370.509 285.217 373.973 282.931C375.753 281.75 377.548 280.523 379.281 279.203C381.015 277.884 382.733 276.427 384.236 275.092L389.682 279.694C388.228 281.684 386.65 283.58 384.957 285.37C383.293 287.164 381.532 288.864 379.68 290.463C375.864 293.793 371.618 296.595 367.055 298.793C362.065 301.206 356.565 302.374 351.025 302.198C348.096 302.088 345.202 301.518 342.45 300.511C340.051 299.623 337.705 298.599 335.424 297.443C326.8 292.889 318.781 287.272 311.555 280.722C307.965 277.547 304.468 274.31 301.185 270.874C299.544 269.156 297.918 267.422 296.322 265.643C294.727 263.863 293.254 262.115 291.598 260.12L302.827 251.039Z" fill="#B65B52"/>
<path d="M386.568 282.379L394.606 275.967L384.389 268.987C384.389 268.987 379.665 275.123 381.061 280.845L386.568 282.379Z" fill="#B55B52"/>
<path d="M401.049 268.68L393.517 262.621L384.436 268.987L394.652 275.967L401.049 268.68Z" fill="#B55B52"/>
<path d="M297.903 243.446C303.901 243.599 307.536 249.582 307.536 249.582L297.366 273.727C297.366 273.727 288.07 268.036 288.591 260.228C289.113 252.174 291.061 243.292 297.903 243.446Z" fill="#263238"/>
<path d="M411.22 594.471C411.071 594.367 410.932 594.249 410.805 594.118C410.654 593.985 410.541 593.814 410.479 593.622C410.417 593.43 410.408 593.226 410.453 593.029C410.867 591.265 415.668 589.424 416.22 589.225C416.28 589.203 416.345 589.198 416.408 589.212C416.47 589.225 416.528 589.257 416.573 589.301C416.606 589.357 416.623 589.421 416.623 589.485C416.623 589.55 416.606 589.614 416.573 589.67C415.806 591.403 414.257 594.364 412.493 594.716C412.053 594.804 411.596 594.716 411.22 594.471ZM415.684 590.16C413.781 590.943 411.327 592.247 411.082 593.228C411.06 593.316 411.065 593.407 411.095 593.491C411.125 593.576 411.179 593.65 411.25 593.704C411.388 593.869 411.567 593.996 411.769 594.071C411.97 594.146 412.188 594.168 412.401 594.134C413.383 593.873 414.579 592.431 415.714 590.16H415.684Z" fill="#C53F3F"/>
<path d="M410.283 589.823C410.171 589.754 410.068 589.671 409.976 589.578C409.794 589.364 409.693 589.092 409.693 588.811C409.693 588.529 409.794 588.257 409.976 588.044C410.108 587.82 410.286 587.627 410.497 587.476C410.709 587.326 410.949 587.221 411.203 587.169C413.213 586.724 416.45 589.102 416.588 589.209C416.636 589.244 416.674 589.291 416.698 589.344C416.722 589.398 416.732 589.457 416.726 589.516C416.72 589.576 416.696 589.632 416.658 589.679C416.619 589.725 416.569 589.759 416.511 589.777C415.146 590.437 411.664 590.713 410.283 589.823ZM415.499 589.378C414.283 588.435 412.802 587.899 411.265 587.844C411.103 587.87 410.949 587.934 410.816 588.03C410.683 588.126 410.574 588.251 410.498 588.396C410.283 588.765 410.375 588.949 410.498 589.071C411.142 589.792 413.934 589.854 415.606 589.394L415.499 589.378Z" fill="#C53F3F"/>
<path d="M280.721 623.464C279.573 623.546 278.427 623.273 277.439 622.681C277.184 622.496 276.975 622.254 276.829 621.974C276.683 621.695 276.603 621.386 276.595 621.071C276.574 620.896 276.601 620.719 276.674 620.56C276.747 620.4 276.863 620.263 277.009 620.166C278.543 619.122 284.234 621.7 285.369 622.252C285.433 622.276 285.487 622.32 285.526 622.376C285.564 622.432 285.584 622.498 285.584 622.566C285.584 622.634 285.564 622.701 285.526 622.757C285.487 622.813 285.433 622.856 285.369 622.881C283.845 623.241 282.287 623.437 280.721 623.464ZM278.052 620.564C277.822 620.545 277.591 620.599 277.393 620.718C277.342 620.75 277.302 620.796 277.278 620.851C277.253 620.905 277.245 620.966 277.255 621.025C277.262 621.245 277.32 621.46 277.424 621.654C277.527 621.848 277.674 622.016 277.853 622.144C278.835 622.881 281.151 622.988 284.142 622.436C282.241 621.506 280.207 620.874 278.114 620.564H278.052Z" fill="#C53F3F"/>
<path d="M285.324 622.881H285.186C283.299 622.098 279.479 619.046 279.694 617.466C279.694 617.113 279.986 616.683 280.845 616.576C284.158 616.177 285.585 622.236 285.646 622.497C285.66 622.556 285.657 622.617 285.638 622.674C285.619 622.73 285.585 622.781 285.539 622.819C285.509 622.843 285.474 622.861 285.438 622.871C285.401 622.882 285.362 622.885 285.324 622.881ZM281.152 617.22H280.921C280.569 617.22 280.385 617.358 280.369 617.527C280.246 618.447 282.87 620.856 284.802 621.914C284.327 620.472 283.13 617.22 281.121 617.22H281.152Z" fill="#C53F3F"/>
<path d="M253.447 208.624L250.854 207.504C250.854 207.504 251.944 209.759 253.447 208.624Z" fill="#263238"/>
<path d="M367.5 638.512H544.033C556.419 638.512 566.46 628.471 566.46 616.085V193.391C566.46 181.005 556.419 170.964 544.033 170.964H367.5C355.114 170.964 345.073 181.005 345.073 193.391L345.073 616.085C345.073 628.471 355.114 638.512 367.5 638.512Z" fill="#C53F3F"/>
<path d="M346.469 312.537H349.476C351.797 312.537 353.679 310.655 353.679 308.334V253.969C353.679 251.648 351.797 249.766 349.476 249.766H346.469C344.148 249.766 342.266 251.648 342.266 253.969V308.334C342.266 310.655 344.148 312.537 346.469 312.537Z" fill="#C53F3F"/>
<path d="M566.92 280.415H570.386C572.581 280.415 574.359 278.636 574.359 276.442V253.739C574.359 251.545 572.581 249.766 570.386 249.766H566.92C564.725 249.766 562.946 251.545 562.946 253.739V276.442C562.946 278.636 564.725 280.415 566.92 280.415Z" fill="#C53F3F"/>
<path d="M566.92 320.928H570.386C572.581 320.928 574.359 319.149 574.359 316.955V294.252C574.359 292.058 572.581 290.279 570.386 290.279H566.92C564.725 290.279 562.946 292.058 562.946 294.252V316.955C562.946 319.149 564.725 320.928 566.92 320.928Z" fill="#C53F3F"/>
<path d="M372.163 638.512H548.696C561.082 638.512 571.123 628.471 571.123 616.085V193.391C571.123 181.005 561.082 170.964 548.696 170.964H372.163C359.777 170.964 349.736 181.005 349.736 193.391L349.736 616.085C349.736 628.471 359.777 638.512 372.163 638.512Z" fill="#C53F3F"/>
<path opacity="0.6" d="M372.163 638.512H548.696C561.082 638.512 571.123 628.471 571.123 616.085V193.391C571.123 181.005 561.082 170.964 548.696 170.964H372.163C359.777 170.964 349.736 181.005 349.736 193.391L349.736 616.085C349.736 628.471 359.777 638.512 372.163 638.512Z" fill="white"/>
<path opacity="0.3" d="M460.414 622.62C467.386 622.62 473.039 616.968 473.039 609.995C473.039 603.023 467.386 597.37 460.414 597.37C453.441 597.37 447.789 603.023 447.789 609.995C447.789 616.968 453.441 622.62 460.414 622.62Z" fill="#C53F3F"/>
<path d="M355.075 588.074H565.785V206.676H355.075L355.075 588.074Z" fill="white"/>
<path d="M492.229 275.798H428.614C425.039 275.798 422.141 278.696 422.141 282.271V345.886C422.141 349.462 425.039 352.36 428.614 352.36H492.229C495.804 352.36 498.703 349.462 498.703 345.886V282.271C498.703 278.696 495.804 275.798 492.229 275.798Z" fill="#C53F3F"/>
<path d="M436.1 275.798H434.566V303.41H436.1V275.798Z" fill="white"/>
<path d="M435.333 308.073C434.796 308.073 434.271 307.914 433.825 307.616C433.378 307.317 433.03 306.893 432.825 306.397C432.619 305.901 432.566 305.355 432.67 304.828C432.775 304.302 433.034 303.818 433.413 303.438C433.793 303.058 434.277 302.8 434.804 302.695C435.33 302.59 435.876 302.644 436.372 302.85C436.869 303.055 437.293 303.403 437.591 303.85C437.889 304.296 438.049 304.821 438.049 305.358C438.044 306.077 437.757 306.765 437.249 307.274C436.74 307.782 436.052 308.069 435.333 308.073ZM435.333 304.177C435.1 304.177 434.871 304.246 434.677 304.376C434.483 304.506 434.331 304.69 434.242 304.906C434.153 305.122 434.129 305.359 434.175 305.588C434.22 305.818 434.333 306.028 434.498 306.193C434.663 306.358 434.874 306.471 435.103 306.517C435.332 306.562 435.57 306.539 435.785 306.449C436.001 306.36 436.186 306.209 436.315 306.014C436.445 305.82 436.515 305.592 436.515 305.358C436.515 305.045 436.39 304.744 436.169 304.523C435.947 304.301 435.647 304.177 435.333 304.177Z" fill="white"/>
<path d="M443.464 329.488C442.922 329.491 442.392 329.333 441.941 329.034C441.489 328.735 441.137 328.309 440.929 327.809C440.72 327.31 440.665 326.76 440.769 326.228C440.874 325.697 441.135 325.209 441.518 324.827C441.9 324.444 442.388 324.183 442.919 324.079C443.45 323.974 444.001 324.029 444.5 324.238C445 324.446 445.426 324.799 445.725 325.25C446.024 325.701 446.182 326.231 446.179 326.773C446.179 327.493 445.893 328.183 445.384 328.693C444.874 329.202 444.184 329.488 443.464 329.488ZM443.464 325.576C443.226 325.573 442.993 325.641 442.795 325.77C442.596 325.9 442.44 326.086 442.347 326.304C442.254 326.522 442.228 326.763 442.273 326.997C442.317 327.23 442.43 327.444 442.597 327.613C442.763 327.782 442.977 327.898 443.209 327.945C443.442 327.992 443.683 327.97 443.903 327.88C444.122 327.789 444.31 327.636 444.442 327.439C444.574 327.242 444.645 327.01 444.645 326.773C444.647 326.616 444.618 326.461 444.559 326.316C444.501 326.171 444.414 326.039 444.304 325.928C444.194 325.816 444.064 325.728 443.919 325.668C443.775 325.607 443.62 325.576 443.464 325.576Z" fill="white"/>
<path d="M477.074 347.052C476.537 347.052 476.012 346.893 475.565 346.595C475.119 346.296 474.771 345.872 474.565 345.376C474.36 344.88 474.306 344.334 474.411 343.807C474.515 343.281 474.774 342.797 475.154 342.417C475.533 342.037 476.017 341.779 476.544 341.674C477.071 341.569 477.616 341.623 478.113 341.828C478.609 342.034 479.033 342.382 479.331 342.828C479.63 343.275 479.789 343.8 479.789 344.337C479.789 345.057 479.503 345.748 478.994 346.257C478.484 346.766 477.794 347.052 477.074 347.052ZM477.074 343.156C476.918 343.156 476.765 343.186 476.622 343.246C476.478 343.305 476.348 343.392 476.238 343.502C476.129 343.611 476.042 343.742 475.982 343.885C475.923 344.028 475.892 344.182 475.892 344.337C475.892 344.492 475.923 344.646 475.982 344.789C476.042 344.932 476.129 345.063 476.238 345.172C476.348 345.282 476.478 345.369 476.622 345.428C476.765 345.488 476.918 345.518 477.074 345.518C477.387 345.518 477.687 345.394 477.909 345.172C478.13 344.951 478.255 344.65 478.255 344.337C478.255 344.024 478.13 343.723 477.909 343.502C477.687 343.28 477.387 343.156 477.074 343.156Z" fill="white"/>
<path d="M451.869 313.688C451.332 313.688 450.808 313.528 450.361 313.23C449.914 312.932 449.566 312.508 449.361 312.012C449.155 311.515 449.102 310.969 449.206 310.443C449.311 309.916 449.57 309.432 449.95 309.053C450.329 308.673 450.813 308.414 451.34 308.309C451.866 308.205 452.412 308.258 452.909 308.464C453.405 308.669 453.829 309.017 454.127 309.464C454.425 309.911 454.585 310.435 454.585 310.972C454.585 311.329 454.514 311.682 454.378 312.012C454.242 312.341 454.042 312.64 453.789 312.892C453.537 313.145 453.238 313.345 452.909 313.481C452.579 313.617 452.226 313.688 451.869 313.688ZM451.869 309.791C451.556 309.791 451.256 309.916 451.034 310.137C450.813 310.359 450.688 310.659 450.688 310.972C450.688 311.286 450.813 311.586 451.034 311.808C451.256 312.029 451.556 312.154 451.869 312.154C452.183 312.154 452.483 312.029 452.705 311.808C452.926 311.586 453.051 311.286 453.051 310.972C453.051 310.659 452.926 310.359 452.705 310.137C452.483 309.916 452.183 309.791 451.869 309.791Z" fill="white"/>
<path d="M435.824 352.36H434.29V317.124L442.696 308.717V275.798H444.23V309.346L435.824 317.753V352.36Z" fill="white"/>
<path d="M452.637 352.36H451.103V328.399L459.509 319.992V275.798H461.043V320.621L452.637 329.028V352.36Z" fill="white"/>
<path d="M477.856 342.389H476.322V312.077L467.916 303.671V275.798H469.45V303.026L477.856 311.433V342.389Z" fill="white"/>
<path d="M485.495 320.943C484.958 320.943 484.434 320.784 483.987 320.486C483.541 320.188 483.192 319.763 482.987 319.267C482.781 318.771 482.728 318.225 482.832 317.699C482.937 317.172 483.196 316.688 483.576 316.308C483.955 315.929 484.439 315.67 484.966 315.565C485.492 315.461 486.038 315.514 486.535 315.72C487.031 315.925 487.455 316.273 487.753 316.72C488.051 317.166 488.211 317.691 488.211 318.228C488.211 318.948 487.925 319.639 487.415 320.148C486.906 320.657 486.216 320.943 485.495 320.943ZM485.495 317.047C485.182 317.047 484.882 317.172 484.66 317.393C484.439 317.615 484.314 317.915 484.314 318.228C484.314 318.542 484.439 318.842 484.66 319.064C484.882 319.285 485.182 319.409 485.495 319.409C485.809 319.409 486.109 319.285 486.331 319.064C486.552 318.842 486.677 318.542 486.677 318.228C486.677 317.915 486.552 317.615 486.331 317.393C486.109 317.172 485.809 317.047 485.495 317.047Z" fill="white"/>
<path d="M486.263 316.28H484.729V312.077L476.322 303.671V275.798H477.856V303.026L486.263 311.433V316.28Z" fill="white"/>
<path d="M452.637 275.798H451.103V309.024H452.637V275.798Z" fill="white"/>
<path d="M444.23 328.721H442.696V352.375H444.23V328.721Z" fill="white"/>
<path d="M460.277 336.498C459.74 336.498 459.215 336.339 458.768 336.041C458.322 335.742 457.974 335.318 457.768 334.822C457.563 334.326 457.509 333.78 457.614 333.253C457.718 332.727 457.977 332.243 458.357 331.863C458.737 331.483 459.22 331.225 459.747 331.12C460.274 331.015 460.82 331.069 461.316 331.275C461.812 331.48 462.236 331.828 462.534 332.275C462.833 332.721 462.992 333.246 462.992 333.783C462.992 334.503 462.706 335.194 462.197 335.703C461.687 336.212 460.997 336.498 460.277 336.498ZM460.277 332.602C459.963 332.602 459.663 332.726 459.441 332.948C459.22 333.169 459.096 333.47 459.096 333.783C459.096 334.096 459.22 334.397 459.441 334.618C459.663 334.84 459.963 334.964 460.277 334.964C460.59 334.964 460.89 334.84 461.112 334.618C461.333 334.397 461.458 334.096 461.458 333.783C461.458 333.47 461.333 333.169 461.112 332.948C460.89 332.726 460.59 332.602 460.277 332.602Z" fill="white"/>
<path d="M461.043 335.731H459.509V352.36H461.043V335.731Z" fill="white"/>
<path d="M485.495 330.362C484.958 330.362 484.434 330.203 483.987 329.905C483.541 329.606 483.192 329.182 482.987 328.686C482.781 328.19 482.728 327.644 482.832 327.117C482.937 326.591 483.196 326.107 483.576 325.727C483.955 325.347 484.439 325.089 484.966 324.984C485.492 324.879 486.038 324.933 486.535 325.139C487.031 325.344 487.455 325.692 487.753 326.139C488.051 326.585 488.211 327.11 488.211 327.647C488.211 328.367 487.925 329.058 487.415 329.567C486.906 330.076 486.216 330.362 485.495 330.362ZM485.495 326.466C485.182 326.466 484.882 326.59 484.66 326.812C484.439 327.033 484.314 327.334 484.314 327.647C484.314 327.96 484.439 328.261 484.66 328.482C484.882 328.704 485.182 328.828 485.495 328.828C485.809 328.828 486.109 328.704 486.331 328.482C486.552 328.261 486.677 327.96 486.677 327.647C486.677 327.334 486.552 327.033 486.331 326.812C486.109 326.59 485.809 326.466 485.495 326.466Z" fill="white"/>
<path d="M486.263 329.595H484.729V352.36H486.263V329.595Z" fill="white"/>
<path d="M477.687 299.115L476.613 298.026L484.728 289.895V275.798H486.262V290.54L477.687 299.115Z" fill="white"/>
<path d="M468.683 321.756C468.144 321.756 467.618 321.596 467.171 321.297C466.724 320.997 466.376 320.571 466.171 320.073C465.967 319.575 465.915 319.028 466.022 318.5C466.13 317.973 466.391 317.489 466.774 317.111C467.157 316.732 467.643 316.476 468.172 316.375C468.701 316.273 469.248 316.331 469.743 316.542C470.239 316.752 470.661 317.105 470.955 317.555C471.25 318.006 471.404 318.534 471.398 319.072C471.39 319.787 471.1 320.47 470.592 320.972C470.084 321.475 469.398 321.757 468.683 321.756ZM468.683 317.86C468.369 317.86 468.069 317.985 467.848 318.206C467.626 318.428 467.502 318.728 467.502 319.041C467.502 319.355 467.626 319.655 467.848 319.877C468.069 320.098 468.369 320.222 468.683 320.222C468.996 320.222 469.296 320.098 469.518 319.877C469.739 319.655 469.864 319.355 469.864 319.041C469.864 318.728 469.739 318.428 469.518 318.206C469.296 317.985 468.996 317.86 468.683 317.86Z" fill="white"/>
<path d="M469.45 320.99H467.916V352.36H469.45V320.99Z" fill="white"/>
<path d="M530.626 465.814H390.219V439.046H530.626V465.814ZM391.753 464.28H529.092V440.58H391.753V464.28Z" fill="#C53F3F"/>
<path d="M403.135 444.308H394.82V460.553H403.135V444.308Z" fill="#C53F3F"/>
<path d="M414.011 444.308H405.696V460.553H414.011V444.308Z" fill="#C53F3F"/>
<path d="M424.872 444.308H416.558V460.553H424.872V444.308Z" fill="#C53F3F"/>
<path opacity="0.9" d="M435.748 444.308H427.434V460.553H435.748V444.308Z" fill="#C53F3F"/>
<path opacity="0.7" d="M446.624 444.308H438.31V460.553H446.624V444.308Z" fill="#C53F3F"/>
<path opacity="0.5" d="M457.484 444.308H449.17V460.553H457.484V444.308Z" fill="#C53F3F"/>
<path opacity="0.3" d="M468.36 444.308H460.046V460.553H468.36V444.308Z" fill="#C53F3F"/>
<path d="M471.567 515.04L469.542 513.169L460.277 523.14L451.011 513.169L448.986 515.04L460.277 527.19L471.567 515.04Z" fill="#C53F3F"/>
<path d="M479.037 531.362H441.5V535.964H479.037V531.362Z" fill="#C53F3F"/>
<path opacity="0.3" d="M490.082 190.83C490.085 190.006 489.843 189.2 489.388 188.514C488.932 187.828 488.283 187.293 487.523 186.977C486.762 186.66 485.925 186.576 485.117 186.736C484.31 186.896 483.567 187.292 482.985 187.875C482.403 188.457 482.007 189.199 481.847 190.007C481.687 190.815 481.77 191.652 482.087 192.412C482.404 193.172 482.939 193.822 483.625 194.277C484.311 194.733 485.117 194.974 485.94 194.971C487.039 194.971 488.092 194.535 488.869 193.758C489.645 192.982 490.082 191.928 490.082 190.83Z" fill="#C53F3F"/>
<path opacity="0.3" d="M471.612 186.672H437.128C434.841 186.672 432.986 188.527 432.986 190.814V190.83C432.986 193.117 434.841 194.971 437.128 194.971H471.612C473.9 194.971 475.754 193.117 475.754 190.83V190.814C475.754 188.527 473.9 186.672 471.612 186.672Z" fill="#C53F3F"/>
<path d="M407.84 408.492H402.911V393.947H407.94C409.384 393.947 410.624 394.238 411.661 394.82C412.703 395.398 413.503 396.229 414.062 397.313C414.621 398.397 414.9 399.695 414.9 401.205C414.9 402.72 414.618 404.022 414.055 405.112C413.496 406.201 412.689 407.036 411.633 407.619C410.582 408.201 409.317 408.492 407.84 408.492ZM405.546 406.212H407.712C408.726 406.212 409.571 406.028 410.248 405.658C410.925 405.284 411.434 404.728 411.775 403.989C412.116 403.246 412.286 402.318 412.286 401.205C412.286 400.093 412.116 399.169 411.775 398.435C411.434 397.697 410.93 397.145 410.262 396.781C409.599 396.411 408.775 396.227 407.79 396.227H405.546V406.212ZM422.048 408.705C420.983 408.705 420.06 408.471 419.278 408.002C418.497 407.533 417.891 406.878 417.46 406.035C417.034 405.192 416.821 404.207 416.821 403.08C416.821 401.953 417.034 400.966 417.46 400.119C417.891 399.271 418.497 398.613 419.278 398.144C420.06 397.675 420.983 397.441 422.048 397.441C423.114 397.441 424.037 397.675 424.818 398.144C425.599 398.613 426.203 399.271 426.629 400.119C427.06 400.966 427.276 401.953 427.276 403.08C427.276 404.207 427.06 405.192 426.629 406.035C426.203 406.878 425.599 407.533 424.818 408.002C424.037 408.471 423.114 408.705 422.048 408.705ZM422.062 406.646C422.64 406.646 423.123 406.487 423.511 406.17C423.9 405.848 424.188 405.417 424.378 404.877C424.572 404.337 424.669 403.736 424.669 403.073C424.669 402.406 424.572 401.802 424.378 401.262C424.188 400.718 423.9 400.284 423.511 399.962C423.123 399.64 422.64 399.479 422.062 399.479C421.471 399.479 420.978 399.64 420.585 399.962C420.197 400.284 419.906 400.718 419.712 401.262C419.522 401.802 419.428 402.406 419.428 403.073C419.428 403.736 419.522 404.337 419.712 404.877C419.906 405.417 420.197 405.848 420.585 406.17C420.978 406.487 421.471 406.646 422.062 406.646ZM431.397 408.492L428.314 397.583H430.935L432.853 405.254H432.952L434.912 397.583H437.505L439.465 405.211H439.571L441.461 397.583H444.088L440.999 408.492H438.321L436.276 401.12H436.127L434.081 408.492H431.397ZM448.455 402.1V408.492H445.884V397.583H448.341V399.437H448.469C448.72 398.826 449.12 398.341 449.669 397.981C450.223 397.621 450.907 397.441 451.722 397.441C452.474 397.441 453.13 397.602 453.689 397.924C454.252 398.246 454.688 398.712 454.996 399.323C455.308 399.934 455.462 400.675 455.457 401.546V408.492H452.886V401.944C452.886 401.215 452.697 400.644 452.318 400.232C451.944 399.82 451.426 399.614 450.763 399.614C450.313 399.614 449.913 399.714 449.562 399.913C449.217 400.107 448.945 400.388 448.746 400.758C448.552 401.127 448.455 401.575 448.455 402.1ZM460.642 393.947V408.492H458.071V393.947H460.642ZM468.044 408.705C466.979 408.705 466.056 408.471 465.275 408.002C464.493 407.533 463.887 406.878 463.456 406.035C463.03 405.192 462.817 404.207 462.817 403.08C462.817 401.953 463.03 400.966 463.456 400.119C463.887 399.271 464.493 398.613 465.275 398.144C466.056 397.675 466.979 397.441 468.044 397.441C469.11 397.441 470.033 397.675 470.814 398.144C471.596 398.613 472.199 399.271 472.625 400.119C473.056 400.966 473.272 401.953 473.272 403.08C473.272 404.207 473.056 405.192 472.625 406.035C472.199 406.878 471.596 407.533 470.814 408.002C470.033 408.471 469.11 408.705 468.044 408.705ZM468.059 406.646C468.636 406.646 469.119 406.487 469.507 406.17C469.896 405.848 470.185 405.417 470.374 404.877C470.568 404.337 470.665 403.736 470.665 403.073C470.665 402.406 470.568 401.802 470.374 401.262C470.185 400.718 469.896 400.284 469.507 399.962C469.119 399.64 468.636 399.479 468.059 399.479C467.467 399.479 466.974 399.64 466.581 399.962C466.193 400.284 465.902 400.718 465.708 401.262C465.518 401.802 465.424 402.406 465.424 403.073C465.424 403.736 465.518 404.337 465.708 404.877C465.902 405.417 466.193 405.848 466.581 406.17C466.974 406.487 467.467 406.646 468.059 406.646ZM478.593 408.712C477.902 408.712 477.279 408.589 476.725 408.343C476.176 408.092 475.74 407.723 475.418 407.235C475.101 406.747 474.942 406.146 474.942 405.431C474.942 404.816 475.056 404.307 475.283 403.904C475.511 403.502 475.821 403.18 476.214 402.938C476.607 402.697 477.049 402.514 477.542 402.391C478.039 402.263 478.553 402.171 479.083 402.114C479.722 402.048 480.241 401.989 480.638 401.937C481.036 401.88 481.325 401.795 481.505 401.681C481.69 401.563 481.782 401.38 481.782 401.134V401.092C481.782 400.557 481.623 400.142 481.306 399.849C480.989 399.555 480.532 399.408 479.935 399.408C479.306 399.408 478.806 399.546 478.437 399.82C478.072 400.095 477.826 400.419 477.698 400.793L475.298 400.452C475.487 399.79 475.799 399.236 476.235 398.79C476.671 398.341 477.203 398.004 477.833 397.782C478.463 397.555 479.159 397.441 479.921 397.441C480.447 397.441 480.97 397.503 481.491 397.626C482.012 397.749 482.487 397.952 482.918 398.237C483.349 398.516 483.695 398.897 483.955 399.38C484.22 399.863 484.353 400.467 484.353 401.191V408.492H481.881V406.994H481.796C481.64 407.297 481.42 407.581 481.136 407.846C480.856 408.106 480.504 408.317 480.077 408.478C479.656 408.634 479.161 408.712 478.593 408.712ZM479.261 406.823C479.777 406.823 480.224 406.721 480.603 406.518C480.982 406.309 481.273 406.035 481.477 405.694C481.685 405.353 481.789 404.981 481.789 404.579V403.293C481.709 403.36 481.571 403.421 481.377 403.478C481.188 403.535 480.975 403.585 480.738 403.627C480.501 403.67 480.267 403.708 480.035 403.741C479.803 403.774 479.602 403.802 479.431 403.826C479.048 403.878 478.704 403.963 478.401 404.082C478.098 404.2 477.859 404.366 477.684 404.579C477.509 404.787 477.421 405.057 477.421 405.388C477.421 405.862 477.594 406.219 477.94 406.461C478.285 406.702 478.726 406.823 479.261 406.823ZM490.987 408.684C490.129 408.684 489.362 408.464 488.685 408.023C488.008 407.583 487.473 406.944 487.08 406.106C486.687 405.268 486.491 404.25 486.491 403.052C486.491 401.84 486.69 400.817 487.087 399.984C487.49 399.146 488.032 398.513 488.714 398.087C489.396 397.656 490.156 397.441 490.994 397.441C491.633 397.441 492.158 397.55 492.57 397.768C492.982 397.981 493.309 398.239 493.55 398.542C493.792 398.84 493.979 399.122 494.112 399.387H494.218V393.947H496.796V408.492H494.268V406.773H494.112C493.979 407.039 493.787 407.32 493.536 407.619C493.285 407.912 492.954 408.163 492.542 408.371C492.13 408.58 491.612 408.684 490.987 408.684ZM491.704 406.575C492.248 406.575 492.712 406.428 493.096 406.134C493.479 405.836 493.771 405.422 493.969 404.891C494.168 404.361 494.268 403.743 494.268 403.038C494.268 402.332 494.168 401.719 493.969 401.198C493.775 400.677 493.487 400.272 493.103 399.984C492.724 399.695 492.258 399.55 491.704 399.55C491.131 399.55 490.653 399.7 490.269 399.998C489.886 400.296 489.597 400.708 489.403 401.234C489.209 401.759 489.112 402.361 489.112 403.038C489.112 403.719 489.209 404.328 489.403 404.863C489.602 405.393 489.893 405.812 490.276 406.12C490.665 406.423 491.14 406.575 491.704 406.575Z" fill="#C53F3F"/>
</svg>
