<svg width="521" height="575" viewBox="0 0 521 575" fill="none" xmlns="http://www.w3.org/2000/svg">
<path d="M135.591 0.678711H7.25439V186.692H135.591V0.678711Z" fill="#E0E0E0"/>
<path d="M129.163 0.678711H0.825928V186.692H129.163V0.678711Z" fill="#F5F5F5"/>
<path d="M113.226 20.833H16.7754V166.551H113.226V20.833Z" fill="white"/>
<path d="M113.213 166.551C113.213 166.551 113.213 166.308 113.213 165.835C113.213 165.362 113.213 164.672 113.213 163.777C113.213 161.937 113.213 159.253 113.213 155.777C113.213 148.799 113.213 138.613 113.124 125.757C113.124 100.069 113.035 63.6843 112.971 20.833L113.29 21.1525L16.7884 21.1781L17.1334 20.833C17.1334 75.787 17.1334 126.485 17.0567 166.525L16.7884 166.244L86.9761 166.397H106.376H111.488C112.651 166.397 113.252 166.397 113.252 166.397C113.252 166.397 112.689 166.397 111.552 166.397H106.517H87.1806L16.7756 166.87H16.4561V166.589C16.4561 126.524 16.4561 75.8509 16.3794 20.8969V20.5391H16.75H113.175H113.584V20.8586C113.584 63.7866 113.469 100.248 113.431 126C113.431 138.78 113.431 149.004 113.341 155.943C113.341 159.394 113.341 162.052 113.341 163.867C113.341 164.749 113.341 165.426 113.341 165.899C113.341 166.372 113.213 166.551 113.213 166.551Z" fill="#E0E0E0"/>
<path d="M129.521 0.729492C128.865 1.90676 128.099 3.01931 127.233 4.05229C125.738 6.04597 123.629 8.76811 121.214 11.7203C118.798 14.6725 116.536 17.254 114.824 19.0944C113.974 20.1349 113.033 21.0973 112.012 21.9699C112.731 20.8356 113.548 19.7666 114.453 18.7749C116.178 16.6789 118.287 14.1102 120.638 11.273L126.811 3.77113C127.632 2.68679 128.538 1.66968 129.521 0.729492Z" fill="#E0E0E0"/>
<path d="M113.712 166.077C118.501 173.705 124.143 180.763 130.53 187.113L113.712 166.077Z" fill="white"/>
<path d="M130.53 187.113C129.459 186.334 128.473 185.443 127.591 184.455C125.341 182.179 123.208 179.791 121.201 177.298C119.205 174.807 117.341 172.213 115.616 169.528C114.847 168.448 114.191 167.292 113.661 166.077C114.519 167.08 115.309 168.138 116.025 169.247C117.431 171.24 119.424 173.95 121.738 176.915C124.051 179.88 126.275 182.346 127.898 184.161C128.844 185.081 129.724 186.068 130.53 187.113Z" fill="#E0E0E0"/>
<path d="M0.813232 186.551L17.6189 165.809L0.813232 186.551Z" fill="white"/>
<path d="M17.6189 165.809C15.0984 169.484 12.3808 173.021 9.47808 176.403C6.7621 179.929 3.87015 183.316 0.813232 186.551C3.33162 182.876 6.04486 179.34 8.94131 175.956C11.6547 172.424 14.5512 169.037 17.6189 165.809Z" fill="#E0E0E0"/>
<path d="M0.825928 0.729492C3.71889 3.82938 6.4408 7.08458 8.97957 10.4806C11.7255 13.7419 14.2856 17.1554 16.6476 20.7046C13.7528 17.6019 11.0308 14.3423 8.49393 10.9407C5.74659 7.68495 3.18647 4.27571 0.825928 0.729492Z" fill="#E0E0E0"/>
<path d="M83.1676 50.4189H50.8726V142.115H83.1676V50.4189Z" fill="#E0E0E0"/>
<path d="M464.689 401.511H235.684V507.125H464.689V401.511Z" fill="#F5F5F5"/>
<path d="M459.245 502.153H240.924V407.134H459.245V502.153ZM242.342 500.734H457.813V408.501H242.342V500.734Z" fill="#E0E0E0"/>
<path d="M520.64 401.511H464.689V507.125H520.64V401.511Z" fill="#E0E0E0"/>
<path d="M241.639 436.528H458.529C458.595 436.514 458.654 436.478 458.696 436.426C458.739 436.373 458.762 436.308 458.762 436.241C458.762 436.173 458.739 436.108 458.696 436.056C458.654 436.003 458.595 435.967 458.529 435.953H241.639C241.574 435.967 241.514 436.003 241.472 436.056C241.43 436.108 241.406 436.173 241.406 436.241C241.406 436.308 241.43 436.373 241.472 436.426C241.514 436.478 241.574 436.514 241.639 436.528Z" fill="#E0E0E0"/>
<path d="M350.794 436.209C351.394 426.655 351.42 417.074 350.87 407.518C350.87 407.44 350.839 407.365 350.784 407.31C350.729 407.255 350.654 407.224 350.576 407.224C350.498 407.224 350.424 407.255 350.369 407.31C350.313 407.365 350.282 407.44 350.282 407.518C349.726 417.074 349.752 426.655 350.359 436.209C350.359 436.266 350.382 436.322 350.423 436.362C350.464 436.403 350.519 436.426 350.576 436.426C350.634 436.426 350.689 436.403 350.73 436.362C350.771 436.322 350.794 436.266 350.794 436.209Z" fill="#E0E0E0"/>
<path d="M409.173 421.869C409.173 422.456 408.998 423.03 408.672 423.518C408.346 424.006 407.882 424.386 407.339 424.61C406.797 424.834 406.2 424.892 405.624 424.776C405.049 424.661 404.521 424.377 404.107 423.961C403.692 423.545 403.411 423.016 403.298 422.44C403.185 421.864 403.246 421.267 403.472 420.726C403.698 420.184 404.08 419.722 404.57 419.398C405.059 419.074 405.633 418.902 406.22 418.904C407.005 418.908 407.755 419.222 408.309 419.777C408.862 420.333 409.173 421.085 409.173 421.869Z" fill="#E0E0E0"/>
<path d="M295.341 421.869C295.339 422.453 295.163 423.022 294.837 423.506C294.511 423.99 294.049 424.366 293.51 424.588C292.97 424.809 292.377 424.866 291.805 424.75C291.233 424.635 290.709 424.353 290.297 423.939C289.885 423.526 289.605 423 289.493 422.428C289.38 421.855 289.439 421.262 289.663 420.724C289.887 420.185 290.265 419.725 290.75 419.401C291.235 419.077 291.806 418.904 292.389 418.904C292.778 418.904 293.163 418.981 293.522 419.13C293.881 419.279 294.207 419.498 294.481 419.773C294.755 420.049 294.972 420.376 295.12 420.736C295.268 421.095 295.343 421.481 295.341 421.869Z" fill="#E0E0E0"/>
<path d="M353.043 454.611C353.045 455.198 352.873 455.773 352.549 456.262C352.225 456.751 351.763 457.133 351.221 457.36C350.68 457.586 350.083 457.647 349.507 457.534C348.931 457.421 348.402 457.139 347.986 456.725C347.57 456.311 347.286 455.783 347.171 455.207C347.055 454.632 347.113 454.035 347.337 453.493C347.561 452.95 347.941 452.486 348.429 452.16C348.917 451.833 349.491 451.659 350.078 451.659C350.466 451.658 350.852 451.733 351.211 451.88C351.571 452.028 351.898 452.245 352.173 452.519C352.449 452.794 352.668 453.12 352.817 453.479C352.966 453.838 353.043 454.223 353.043 454.611Z" fill="#E0E0E0"/>
<path d="M263.059 507.138L251.276 573.44H257.908L279.647 507.138H263.059Z" fill="#E0E0E0"/>
<path d="M448.497 507.138L458.35 573.555H451.717L431.908 507.138H448.497Z" fill="#E0E0E0"/>
<path d="M492.767 507.138L503.936 573.555H497.304L476.178 507.138H492.767Z" fill="#E0E0E0"/>
<path d="M352.838 484.504C352.838 485.088 352.665 485.659 352.341 486.144C352.017 486.63 351.555 487.008 351.016 487.231C350.477 487.455 349.883 487.513 349.31 487.399C348.738 487.285 348.212 487.004 347.799 486.591C347.386 486.179 347.105 485.653 346.991 485.08C346.877 484.507 346.935 483.914 347.159 483.374C347.382 482.835 347.761 482.374 348.246 482.049C348.732 481.725 349.302 481.552 349.886 481.552C350.274 481.55 350.659 481.625 351.018 481.773C351.377 481.921 351.703 482.138 351.978 482.413C352.252 482.687 352.469 483.013 352.617 483.372C352.765 483.731 352.84 484.116 352.838 484.504Z" fill="#E0E0E0"/>
<path d="M241.639 469.206H458.529C458.595 469.192 458.654 469.156 458.696 469.103C458.739 469.051 458.762 468.986 458.762 468.918C458.762 468.851 458.739 468.786 458.696 468.733C458.654 468.681 458.595 468.645 458.529 468.631H241.639C241.574 468.645 241.514 468.681 241.472 468.733C241.43 468.786 241.406 468.851 241.406 468.918C241.406 468.986 241.43 469.051 241.472 469.103C241.514 469.156 241.574 469.192 241.639 469.206Z" fill="#E0E0E0"/>
<path d="M375.772 540.817L375.704 527.718L311.332 528.055L311.4 541.154L375.772 540.817Z" fill="#E0E0E0"/>
<path d="M383.493 573.848L383.387 553.49L311.641 553.866L311.747 574.224L383.493 573.848Z" fill="#F5F5F5"/>
<path d="M369.708 573.747C369.231 566.969 369.231 560.166 369.708 553.389C370.168 560.167 370.168 566.969 369.708 573.747Z" fill="#E0E0E0"/>
<path d="M372.711 573.747C372.251 566.969 372.251 560.167 372.711 553.389C373.188 560.166 373.188 566.969 372.711 573.747Z" fill="#E0E0E0"/>
<path d="M322.575 573.747C322.115 566.969 322.115 560.167 322.575 553.389C323.035 560.167 323.035 566.969 322.575 573.747Z" fill="#E0E0E0"/>
<path d="M325.591 573.747C325.131 566.969 325.131 560.167 325.591 553.389C326.051 560.167 326.051 566.969 325.591 573.747Z" fill="#E0E0E0"/>
<path d="M332.122 563.893C332.122 563.701 339.368 563.548 348.289 563.548C357.209 563.548 364.455 563.701 364.455 563.893C364.455 564.085 357.222 564.251 348.289 564.251C339.356 564.251 332.122 564.097 332.122 563.893Z" fill="#E0E0E0"/>
<path d="M410.447 553.383L410.379 540.283L321.853 540.747L321.922 553.846L410.447 553.383Z" fill="#EBEBEB"/>
<path d="M397.786 551.79C396.944 551.8 396.119 551.56 395.415 551.1C394.71 550.64 394.158 549.981 393.829 549.207C393.5 548.432 393.409 547.578 393.567 546.751C393.725 545.925 394.125 545.164 394.716 544.566C395.307 543.967 396.063 543.558 396.888 543.39C397.712 543.222 398.568 543.303 399.346 543.623C400.124 543.942 400.79 544.486 401.259 545.185C401.727 545.884 401.977 546.706 401.977 547.547C401.981 548.101 401.875 548.65 401.666 549.163C401.457 549.676 401.149 550.143 400.76 550.537C400.371 550.931 399.908 551.244 399.398 551.459C398.887 551.675 398.339 551.787 397.786 551.79Z" fill="#E0E0E0"/>
<path d="M386.284 548.864V546.244H327.023V548.864H386.284Z" fill="#E0E0E0"/>
</svg>
