<svg width="49" height="51" viewBox="0 0 49 51" fill="none" xmlns="http://www.w3.org/2000/svg">
<path d="M24.5983 0.916748C11.1758 0.916748 0.236218 11.8563 0.236218 25.2788C0.236218 29.5809 1.36705 33.7601 3.48122 37.4476L0.0395508 50.0834L12.9458 46.6909C16.5104 48.633 20.5175 49.6655 24.5983 49.6655C38.0208 49.6655 48.9604 38.7259 48.9604 25.3034C48.9604 18.7888 46.4283 12.6676 41.8312 8.0705C37.2341 3.44883 31.1129 0.916748 24.5983 0.916748ZM24.6229 5.02216C30.0312 5.02216 35.0954 7.13633 38.9304 10.9713C42.7408 14.8063 44.855 19.8951 44.855 25.3034C44.855 36.4642 35.7591 45.5355 24.5983 45.5355C20.96 45.5355 17.3954 44.5767 14.2979 42.7084L13.5604 42.2905L5.89038 44.3063L7.9308 36.833L7.43913 36.0463C5.4233 32.8751 4.34163 29.1138 4.34163 25.2788C4.36622 14.118 13.4375 5.02216 24.6229 5.02216ZM15.9695 14.0197C15.5762 14.0197 14.9125 14.1672 14.347 14.7817C13.8062 15.3963 12.2083 16.8959 12.2083 19.8705C12.2083 22.8697 14.3962 25.7459 14.6666 26.1638C15.0108 26.5817 18.9933 32.7276 25.1145 35.3334C26.565 35.9972 27.6958 36.3659 28.5808 36.6363C30.0312 37.1034 31.3587 37.0297 32.4158 36.8822C33.5958 36.7101 36.005 35.4072 36.5212 33.9813C37.0375 32.5555 37.0375 31.3509 36.89 31.0805C36.7179 30.8347 36.3245 30.6872 35.71 30.4167C35.0954 30.0726 32.0962 28.5976 31.5554 28.4009C30.99 28.2042 30.6458 28.1059 30.1787 28.6959C29.7854 29.3105 28.6054 30.6872 28.2612 31.0805C27.8925 31.4984 27.5483 31.5476 26.9583 31.2526C26.3191 30.933 24.3525 30.2938 22.0416 28.2288C20.2225 26.6063 19.0179 24.6151 18.6491 24.0005C18.3541 23.4105 18.6245 23.0417 18.9195 22.7713C19.19 22.5009 19.5833 22.0584 19.8291 21.6897C20.1487 21.3455 20.2471 21.0751 20.4437 20.6817C20.6404 20.2638 20.542 19.9197 20.3946 19.6247C20.247 19.3542 19.0179 16.3059 18.5016 15.1013C18.01 13.9213 17.5183 14.0688 17.125 14.0442C16.7808 14.0442 16.3875 14.0197 15.9695 14.0197Z" fill="white"/>
</svg>
