<svg width="48" height="40" viewBox="0 0 48 40" fill="none" xmlns="http://www.w3.org/2000/svg">
<path d="M47.5351 4.75008C45.8026 5.55217 43.9351 6.07925 42.0001 6.33133C43.9801 5.11675 45.5101 3.19175 46.2301 0.877165C44.3626 2.023 42.2926 2.82508 40.1101 3.28342C38.3326 1.31258 35.8351 0.166748 33.0001 0.166748C27.7126 0.166748 23.3926 4.56675 23.3926 9.998C23.3926 10.7772 23.4826 11.5334 23.6401 12.2438C15.6301 11.8313 8.49759 7.91258 3.75009 1.97716C2.91759 3.42091 2.44509 5.11675 2.44509 6.90425C2.44509 10.3188 4.13259 13.3438 6.74259 15.0626C5.14509 15.0626 3.66009 14.6042 2.35509 13.9167C2.35509 13.9167 2.35509 13.9167 2.35509 13.9855C2.35509 18.7522 5.68509 22.7397 10.0951 23.6334C9.28509 23.8626 8.43009 23.9772 7.55259 23.9772C6.94509 23.9772 6.33759 23.9084 5.75259 23.7938C6.96759 27.6667 10.5001 30.5543 14.7526 30.623C11.4676 33.2813 7.30509 34.8397 2.76009 34.8397C1.99509 34.8397 1.23009 34.7938 0.465088 34.7022C4.74009 37.498 9.82509 39.1251 15.2701 39.1251C33.0001 39.1251 42.7426 24.1376 42.7426 11.1438C42.7426 10.7084 42.7426 10.2959 42.7201 9.8605C44.6101 8.4855 46.2301 6.74383 47.5351 4.75008Z" fill="#F5F5F5"/>
</svg>
