<svg width="70" height="70" viewBox="0 0 70 70" fill="none" xmlns="http://www.w3.org/2000/svg">
<path d="M52.0835 38.4163H38.4168V52.083H31.5835V38.4163H17.9168V31.583H31.5835V17.9163H38.4168V31.583H52.0835V38.4163ZM35.0002 0.833008C30.5133 0.833008 26.0704 1.71675 21.9251 3.43379C17.7799 5.15083 14.0133 7.66752 10.8407 10.8402C4.43319 17.2477 0.833496 25.9381 0.833496 34.9997C0.833496 44.0612 4.43319 52.7517 10.8407 59.1592C14.0133 62.3318 17.7799 64.8485 21.9251 66.5656C26.0704 68.2826 30.5133 69.1663 35.0002 69.1663C44.0617 69.1663 52.7522 65.5667 59.1596 59.1592C65.5671 52.7517 69.1668 44.0612 69.1668 34.9997C69.1668 30.5128 68.2831 26.0699 66.566 21.9247C64.849 17.7794 62.3323 14.0129 59.1596 10.8402C55.987 7.66752 52.2205 5.15083 48.0752 3.43379C43.9299 1.71675 39.487 0.833008 35.0002 0.833008Z" fill="black"/>
</svg>
