<svg width="50" height="50" viewBox="0 0 50 50" fill="none" xmlns="http://www.w3.org/2000/svg">
<path d="M25 0.100098C11.25 0.100098 0 11.3251 0 25.1501C0 37.6501 9.15 48.0251 21.1 49.9001V32.4001H14.75V25.1501H21.1V19.6251C21.1 13.3501 24.825 9.9001 30.55 9.9001C33.275 9.9001 36.125 10.3751 36.125 10.3751V16.5501H32.975C29.875 16.5501 28.9 18.4751 28.9 20.4501V25.1501H35.85L34.725 32.4001H28.9V49.9001C34.7911 48.9697 40.1555 45.9639 44.0248 41.4252C47.8941 36.8866 50.0134 31.1142 50 25.1501C50 11.3251 38.75 0.100098 25 0.100098Z" fill="#F5F5F5"/>
</svg>
