<svg width="48" height="49" viewBox="0 0 48 49" fill="none" xmlns="http://www.w3.org/2000/svg">
<path d="M14.2001 0.75H33.8001C41.2668 0.75 47.3334 6.925 47.3334 14.525V34.475C47.3334 38.1284 45.9076 41.6321 43.3696 44.2154C40.8316 46.7987 37.3893 48.25 33.8001 48.25H14.2001C6.73341 48.25 0.666748 42.075 0.666748 34.475V14.525C0.666748 10.8716 2.09258 7.36792 4.63057 4.7846C7.16856 2.20129 10.6108 0.75 14.2001 0.75ZM13.7334 5.5C11.5056 5.5 9.36902 6.4008 7.79372 8.00424C6.21841 9.60767 5.33341 11.7824 5.33341 14.05V34.95C5.33341 39.6763 9.09008 43.5 13.7334 43.5H34.2667C36.4946 43.5 38.6311 42.5992 40.2064 40.9958C41.7817 39.3923 42.6667 37.2176 42.6667 34.95V14.05C42.6667 9.32375 38.9101 5.5 34.2667 5.5H13.7334ZM36.2501 9.0625C37.0236 9.0625 37.7655 9.37528 38.3125 9.93203C38.8595 10.4888 39.1667 11.2439 39.1667 12.0312C39.1667 12.8186 38.8595 13.5737 38.3125 14.1305C37.7655 14.6872 37.0236 15 36.2501 15C35.4765 15 34.7347 14.6872 34.1877 14.1305C33.6407 13.5737 33.3334 12.8186 33.3334 12.0312C33.3334 11.2439 33.6407 10.4888 34.1877 9.93203C34.7347 9.37528 35.4765 9.0625 36.2501 9.0625ZM24.0001 12.625C27.0943 12.625 30.0617 13.8761 32.2497 16.1031C34.4376 18.3301 35.6667 21.3506 35.6667 24.5C35.6667 27.6494 34.4376 30.6699 32.2497 32.8969C30.0617 35.1239 27.0943 36.375 24.0001 36.375C20.9059 36.375 17.9384 35.1239 15.7505 32.8969C13.5626 30.6699 12.3334 27.6494 12.3334 24.5C12.3334 21.3506 13.5626 18.3301 15.7505 16.1031C17.9384 13.8761 20.9059 12.625 24.0001 12.625ZM24.0001 17.375C22.1436 17.375 20.3631 18.1257 19.0503 19.4619C17.7376 20.7981 17.0001 22.6103 17.0001 24.5C17.0001 26.3897 17.7376 28.2019 19.0503 29.5381C20.3631 30.8743 22.1436 31.625 24.0001 31.625C25.8566 31.625 27.6371 30.8743 28.9498 29.5381C30.2626 28.2019 31.0001 26.3897 31.0001 24.5C31.0001 22.6103 30.2626 20.7981 28.9498 19.4619C27.6371 18.1257 25.8566 17.375 24.0001 17.375Z" fill="#F5F5F5"/>
</svg>
